<?xml version="1.0" encoding="utf-8" standalone="no"?>
<!DOCTYPE svg PUBLIC "-//W3C//DTD SVG 1.1//EN"
  "http://www.w3.org/Graphics/SVG/1.1/DTD/svg11.dtd">
<svg xmlns:xlink="http://www.w3.org/1999/xlink" width="1000.895625pt" height="569.078437pt" viewBox="0 0 1000.895625 569.078437" xmlns="http://www.w3.org/2000/svg" version="1.1">
 <metadata>
  <rdf:RDF xmlns:dc="http://purl.org/dc/elements/1.1/" xmlns:cc="http://creativecommons.org/ns#" xmlns:rdf="http://www.w3.org/1999/02/22-rdf-syntax-ns#">
   <cc:Work>
    <dc:type rdf:resource="http://purl.org/dc/dcmitype/StillImage"/>
    <dc:date>2025-09-16T00:20:36.316307</dc:date>
    <dc:format>image/svg+xml</dc:format>
    <dc:creator>
     <cc:Agent>
      <dc:title>Matplotlib v3.7.3, https://matplotlib.org/</dc:title>
     </cc:Agent>
    </dc:creator>
   </cc:Work>
  </rdf:RDF>
 </metadata>
 <defs>
  <style type="text/css">*{stroke-linejoin: round; stroke-linecap: butt}</style>
 </defs>
 <g id="figure_1">
  <g id="patch_1">
   <path d="M 0 569.078437 
L 1000.895625 569.078437 
L 1000.895625 0 
L 0 0 
z
" style="fill: #ffffff"/>
  </g>
  <g id="axes_1">
   <g id="patch_2">
    <path d="M 58.525625 516.037187 
L 993.695625 516.037187 
L 993.695625 45.877187 
L 58.525625 45.877187 
z
" style="fill: #ffffff"/>
   </g>
   <g id="matplotlib.axis_1">
    <g id="xtick_1">
     <g id="line2d_1">
      <defs>
       <path id="m3368ea2714" d="M 0 0 
L 0 3.5 
" style="stroke: #000000; stroke-width: 0.8"/>
      </defs>
      <g>
       <use xlink:href="#m3368ea2714" x="135.733538" y="516.037187" style="stroke: #000000; stroke-width: 0.8"/>
      </g>
     </g>
     <g id="text_1">
      <!-- 2016 -->
      <g transform="translate(112.828538 536.714375) scale(0.18 -0.18)">
       <defs>
        <path id="DejaVuSans-32" d="M 1228 531 
L 3431 531 
L 3431 0 
L 469 0 
L 469 531 
Q 828 903 1448 1529 
Q 2069 2156 2228 2338 
Q 2531 2678 2651 2914 
Q 2772 3150 2772 3378 
Q 2772 3750 2511 3984 
Q 2250 4219 1831 4219 
Q 1534 4219 1204 4116 
Q 875 4013 500 3803 
L 500 4441 
Q 881 4594 1212 4672 
Q 1544 4750 1819 4750 
Q 2544 4750 2975 4387 
Q 3406 4025 3406 3419 
Q 3406 3131 3298 2873 
Q 3191 2616 2906 2266 
Q 2828 2175 2409 1742 
Q 1991 1309 1228 531 
z
" transform="scale(0.015625)"/>
        <path id="DejaVuSans-30" d="M 2034 4250 
Q 1547 4250 1301 3770 
Q 1056 3291 1056 2328 
Q 1056 1369 1301 889 
Q 1547 409 2034 409 
Q 2525 409 2770 889 
Q 3016 1369 3016 2328 
Q 3016 3291 2770 3770 
Q 2525 4250 2034 4250 
z
M 2034 4750 
Q 2819 4750 3233 4129 
Q 3647 3509 3647 2328 
Q 3647 1150 3233 529 
Q 2819 -91 2034 -91 
Q 1250 -91 836 529 
Q 422 1150 422 2328 
Q 422 3509 836 4129 
Q 1250 4750 2034 4750 
z
" transform="scale(0.015625)"/>
        <path id="DejaVuSans-31" d="M 794 531 
L 1825 531 
L 1825 4091 
L 703 3866 
L 703 4441 
L 1819 4666 
L 2450 4666 
L 2450 531 
L 3481 531 
L 3481 0 
L 794 0 
L 794 531 
z
" transform="scale(0.015625)"/>
        <path id="DejaVuSans-36" d="M 2113 2584 
Q 1688 2584 1439 2293 
Q 1191 2003 1191 1497 
Q 1191 994 1439 701 
Q 1688 409 2113 409 
Q 2538 409 2786 701 
Q 3034 994 3034 1497 
Q 3034 2003 2786 2293 
Q 2538 2584 2113 2584 
z
M 3366 4563 
L 3366 3988 
Q 3128 4100 2886 4159 
Q 2644 4219 2406 4219 
Q 1781 4219 1451 3797 
Q 1122 3375 1075 2522 
Q 1259 2794 1537 2939 
Q 1816 3084 2150 3084 
Q 2853 3084 3261 2657 
Q 3669 2231 3669 1497 
Q 3669 778 3244 343 
Q 2819 -91 2113 -91 
Q 1303 -91 875 529 
Q 447 1150 447 2328 
Q 447 3434 972 4092 
Q 1497 4750 2381 4750 
Q 2619 4750 2861 4703 
Q 3103 4656 3366 4563 
z
" transform="scale(0.015625)"/>
       </defs>
       <use xlink:href="#DejaVuSans-32"/>
       <use xlink:href="#DejaVuSans-30" x="63.623047"/>
       <use xlink:href="#DejaVuSans-31" x="127.246094"/>
       <use xlink:href="#DejaVuSans-36" x="190.869141"/>
      </g>
     </g>
    </g>
    <g id="xtick_2">
     <g id="line2d_2">
      <g>
       <use xlink:href="#m3368ea2714" x="222.484002" y="516.037187" style="stroke: #000000; stroke-width: 0.8"/>
      </g>
     </g>
     <g id="text_2">
      <!-- 2017 -->
      <g transform="translate(199.579002 536.714375) scale(0.18 -0.18)">
       <defs>
        <path id="DejaVuSans-37" d="M 525 4666 
L 3525 4666 
L 3525 4397 
L 1831 0 
L 1172 0 
L 2766 4134 
L 525 4134 
L 525 4666 
z
" transform="scale(0.015625)"/>
       </defs>
       <use xlink:href="#DejaVuSans-32"/>
       <use xlink:href="#DejaVuSans-30" x="63.623047"/>
       <use xlink:href="#DejaVuSans-31" x="127.246094"/>
       <use xlink:href="#DejaVuSans-37" x="190.869141"/>
      </g>
     </g>
    </g>
    <g id="xtick_3">
     <g id="line2d_3">
      <g>
       <use xlink:href="#m3368ea2714" x="309.234465" y="516.037187" style="stroke: #000000; stroke-width: 0.8"/>
      </g>
     </g>
     <g id="text_3">
      <!-- 2018 -->
      <g transform="translate(286.329465 536.714375) scale(0.18 -0.18)">
       <defs>
        <path id="DejaVuSans-38" d="M 2034 2216 
Q 1584 2216 1326 1975 
Q 1069 1734 1069 1313 
Q 1069 891 1326 650 
Q 1584 409 2034 409 
Q 2484 409 2743 651 
Q 3003 894 3003 1313 
Q 3003 1734 2745 1975 
Q 2488 2216 2034 2216 
z
M 1403 2484 
Q 997 2584 770 2862 
Q 544 3141 544 3541 
Q 544 4100 942 4425 
Q 1341 4750 2034 4750 
Q 2731 4750 3128 4425 
Q 3525 4100 3525 3541 
Q 3525 3141 3298 2862 
Q 3072 2584 2669 2484 
Q 3125 2378 3379 2068 
Q 3634 1759 3634 1313 
Q 3634 634 3220 271 
Q 2806 -91 2034 -91 
Q 1263 -91 848 271 
Q 434 634 434 1313 
Q 434 1759 690 2068 
Q 947 2378 1403 2484 
z
M 1172 3481 
Q 1172 3119 1398 2916 
Q 1625 2713 2034 2713 
Q 2441 2713 2670 2916 
Q 2900 3119 2900 3481 
Q 2900 3844 2670 4047 
Q 2441 4250 2034 4250 
Q 1625 4250 1398 4047 
Q 1172 3844 1172 3481 
z
" transform="scale(0.015625)"/>
       </defs>
       <use xlink:href="#DejaVuSans-32"/>
       <use xlink:href="#DejaVuSans-30" x="63.623047"/>
       <use xlink:href="#DejaVuSans-31" x="127.246094"/>
       <use xlink:href="#DejaVuSans-38" x="190.869141"/>
      </g>
     </g>
    </g>
    <g id="xtick_4">
     <g id="line2d_4">
      <g>
       <use xlink:href="#m3368ea2714" x="395.984929" y="516.037187" style="stroke: #000000; stroke-width: 0.8"/>
      </g>
     </g>
     <g id="text_4">
      <!-- 2019 -->
      <g transform="translate(373.079929 536.714375) scale(0.18 -0.18)">
       <defs>
        <path id="DejaVuSans-39" d="M 703 97 
L 703 672 
Q 941 559 1184 500 
Q 1428 441 1663 441 
Q 2288 441 2617 861 
Q 2947 1281 2994 2138 
Q 2813 1869 2534 1725 
Q 2256 1581 1919 1581 
Q 1219 1581 811 2004 
Q 403 2428 403 3163 
Q 403 3881 828 4315 
Q 1253 4750 1959 4750 
Q 2769 4750 3195 4129 
Q 3622 3509 3622 2328 
Q 3622 1225 3098 567 
Q 2575 -91 1691 -91 
Q 1453 -91 1209 -44 
Q 966 3 703 97 
z
M 1959 2075 
Q 2384 2075 2632 2365 
Q 2881 2656 2881 3163 
Q 2881 3666 2632 3958 
Q 2384 4250 1959 4250 
Q 1534 4250 1286 3958 
Q 1038 3666 1038 3163 
Q 1038 2656 1286 2365 
Q 1534 2075 1959 2075 
z
" transform="scale(0.015625)"/>
       </defs>
       <use xlink:href="#DejaVuSans-32"/>
       <use xlink:href="#DejaVuSans-30" x="63.623047"/>
       <use xlink:href="#DejaVuSans-31" x="127.246094"/>
       <use xlink:href="#DejaVuSans-39" x="190.869141"/>
      </g>
     </g>
    </g>
    <g id="xtick_5">
     <g id="line2d_5">
      <g>
       <use xlink:href="#m3368ea2714" x="482.735393" y="516.037187" style="stroke: #000000; stroke-width: 0.8"/>
      </g>
     </g>
     <g id="text_5">
      <!-- 2020 -->
      <g transform="translate(459.830393 536.714375) scale(0.18 -0.18)">
       <use xlink:href="#DejaVuSans-32"/>
       <use xlink:href="#DejaVuSans-30" x="63.623047"/>
       <use xlink:href="#DejaVuSans-32" x="127.246094"/>
       <use xlink:href="#DejaVuSans-30" x="190.869141"/>
      </g>
     </g>
    </g>
    <g id="xtick_6">
     <g id="line2d_6">
      <g>
       <use xlink:href="#m3368ea2714" x="569.485857" y="516.037187" style="stroke: #000000; stroke-width: 0.8"/>
      </g>
     </g>
     <g id="text_6">
      <!-- 2021 -->
      <g transform="translate(546.580857 536.714375) scale(0.18 -0.18)">
       <use xlink:href="#DejaVuSans-32"/>
       <use xlink:href="#DejaVuSans-30" x="63.623047"/>
       <use xlink:href="#DejaVuSans-32" x="127.246094"/>
       <use xlink:href="#DejaVuSans-31" x="190.869141"/>
      </g>
     </g>
    </g>
    <g id="xtick_7">
     <g id="line2d_7">
      <g>
       <use xlink:href="#m3368ea2714" x="656.236321" y="516.037187" style="stroke: #000000; stroke-width: 0.8"/>
      </g>
     </g>
     <g id="text_7">
      <!-- 2022 -->
      <g transform="translate(633.331321 536.714375) scale(0.18 -0.18)">
       <use xlink:href="#DejaVuSans-32"/>
       <use xlink:href="#DejaVuSans-30" x="63.623047"/>
       <use xlink:href="#DejaVuSans-32" x="127.246094"/>
       <use xlink:href="#DejaVuSans-32" x="190.869141"/>
      </g>
     </g>
    </g>
    <g id="xtick_8">
     <g id="line2d_8">
      <g>
       <use xlink:href="#m3368ea2714" x="742.986785" y="516.037187" style="stroke: #000000; stroke-width: 0.8"/>
      </g>
     </g>
     <g id="text_8">
      <!-- 2023 -->
      <g transform="translate(720.081785 536.714375) scale(0.18 -0.18)">
       <defs>
        <path id="DejaVuSans-33" d="M 2597 2516 
Q 3050 2419 3304 2112 
Q 3559 1806 3559 1356 
Q 3559 666 3084 287 
Q 2609 -91 1734 -91 
Q 1441 -91 1130 -33 
Q 819 25 488 141 
L 488 750 
Q 750 597 1062 519 
Q 1375 441 1716 441 
Q 2309 441 2620 675 
Q 2931 909 2931 1356 
Q 2931 1769 2642 2001 
Q 2353 2234 1838 2234 
L 1294 2234 
L 1294 2753 
L 1863 2753 
Q 2328 2753 2575 2939 
Q 2822 3125 2822 3475 
Q 2822 3834 2567 4026 
Q 2313 4219 1838 4219 
Q 1578 4219 1281 4162 
Q 984 4106 628 3988 
L 628 4550 
Q 988 4650 1302 4700 
Q 1616 4750 1894 4750 
Q 2613 4750 3031 4423 
Q 3450 4097 3450 3541 
Q 3450 3153 3228 2886 
Q 3006 2619 2597 2516 
z
" transform="scale(0.015625)"/>
       </defs>
       <use xlink:href="#DejaVuSans-32"/>
       <use xlink:href="#DejaVuSans-30" x="63.623047"/>
       <use xlink:href="#DejaVuSans-32" x="127.246094"/>
       <use xlink:href="#DejaVuSans-33" x="190.869141"/>
      </g>
     </g>
    </g>
    <g id="xtick_9">
     <g id="line2d_9">
      <g>
       <use xlink:href="#m3368ea2714" x="829.737248" y="516.037187" style="stroke: #000000; stroke-width: 0.8"/>
      </g>
     </g>
     <g id="text_9">
      <!-- 2024 -->
      <g transform="translate(806.832248 536.714375) scale(0.18 -0.18)">
       <defs>
        <path id="DejaVuSans-34" d="M 2419 4116 
L 825 1625 
L 2419 1625 
L 2419 4116 
z
M 2253 4666 
L 3047 4666 
L 3047 1625 
L 3713 1625 
L 3713 1100 
L 3047 1100 
L 3047 0 
L 2419 0 
L 2419 1100 
L 313 1100 
L 313 1709 
L 2253 4666 
z
" transform="scale(0.015625)"/>
       </defs>
       <use xlink:href="#DejaVuSans-32"/>
       <use xlink:href="#DejaVuSans-30" x="63.623047"/>
       <use xlink:href="#DejaVuSans-32" x="127.246094"/>
       <use xlink:href="#DejaVuSans-34" x="190.869141"/>
      </g>
     </g>
    </g>
    <g id="xtick_10">
     <g id="line2d_10">
      <g>
       <use xlink:href="#m3368ea2714" x="916.487712" y="516.037187" style="stroke: #000000; stroke-width: 0.8"/>
      </g>
     </g>
     <g id="text_10">
      <!-- 2025 -->
      <g transform="translate(893.582712 536.714375) scale(0.18 -0.18)">
       <defs>
        <path id="DejaVuSans-35" d="M 691 4666 
L 3169 4666 
L 3169 4134 
L 1269 4134 
L 1269 2991 
Q 1406 3038 1543 3061 
Q 1681 3084 1819 3084 
Q 2600 3084 3056 2656 
Q 3513 2228 3513 1497 
Q 3513 744 3044 326 
Q 2575 -91 1722 -91 
Q 1428 -91 1123 -41 
Q 819 9 494 109 
L 494 744 
Q 775 591 1075 516 
Q 1375 441 1709 441 
Q 2250 441 2565 725 
Q 2881 1009 2881 1497 
Q 2881 1984 2565 2268 
Q 2250 2553 1709 2553 
Q 1456 2553 1204 2497 
Q 953 2441 691 2322 
L 691 4666 
z
" transform="scale(0.015625)"/>
       </defs>
       <use xlink:href="#DejaVuSans-32"/>
       <use xlink:href="#DejaVuSans-30" x="63.623047"/>
       <use xlink:href="#DejaVuSans-32" x="127.246094"/>
       <use xlink:href="#DejaVuSans-35" x="190.869141"/>
      </g>
     </g>
    </g>
    <g id="text_11">
     <!-- Year -->
     <g transform="translate(503.799063 558.135) scale(0.18 -0.18)">
      <defs>
       <path id="DejaVuSans-Bold-59" d="M -63 4666 
L 1253 4666 
L 2316 3003 
L 3378 4666 
L 4697 4666 
L 2919 1966 
L 2919 0 
L 1716 0 
L 1716 1966 
L -63 4666 
z
" transform="scale(0.015625)"/>
       <path id="DejaVuSans-Bold-65" d="M 4031 1759 
L 4031 1441 
L 1416 1441 
Q 1456 1047 1700 850 
Q 1944 653 2381 653 
Q 2734 653 3104 758 
Q 3475 863 3866 1075 
L 3866 213 
Q 3469 63 3072 -14 
Q 2675 -91 2278 -91 
Q 1328 -91 801 392 
Q 275 875 275 1747 
Q 275 2603 792 3093 
Q 1309 3584 2216 3584 
Q 3041 3584 3536 3087 
Q 4031 2591 4031 1759 
z
M 2881 2131 
Q 2881 2450 2695 2645 
Q 2509 2841 2209 2841 
Q 1884 2841 1681 2658 
Q 1478 2475 1428 2131 
L 2881 2131 
z
" transform="scale(0.015625)"/>
       <path id="DejaVuSans-Bold-61" d="M 2106 1575 
Q 1756 1575 1579 1456 
Q 1403 1338 1403 1106 
Q 1403 894 1545 773 
Q 1688 653 1941 653 
Q 2256 653 2472 879 
Q 2688 1106 2688 1447 
L 2688 1575 
L 2106 1575 
z
M 3816 1997 
L 3816 0 
L 2688 0 
L 2688 519 
Q 2463 200 2181 54 
Q 1900 -91 1497 -91 
Q 953 -91 614 226 
Q 275 544 275 1050 
Q 275 1666 698 1953 
Q 1122 2241 2028 2241 
L 2688 2241 
L 2688 2328 
Q 2688 2594 2478 2717 
Q 2269 2841 1825 2841 
Q 1466 2841 1156 2769 
Q 847 2697 581 2553 
L 581 3406 
Q 941 3494 1303 3539 
Q 1666 3584 2028 3584 
Q 2975 3584 3395 3211 
Q 3816 2838 3816 1997 
z
" transform="scale(0.015625)"/>
       <path id="DejaVuSans-Bold-72" d="M 3138 2547 
Q 2991 2616 2845 2648 
Q 2700 2681 2553 2681 
Q 2122 2681 1889 2404 
Q 1656 2128 1656 1613 
L 1656 0 
L 538 0 
L 538 3500 
L 1656 3500 
L 1656 2925 
Q 1872 3269 2151 3426 
Q 2431 3584 2822 3584 
Q 2878 3584 2943 3579 
Q 3009 3575 3134 3559 
L 3138 2547 
z
" transform="scale(0.015625)"/>
      </defs>
      <use xlink:href="#DejaVuSans-Bold-59"/>
      <use xlink:href="#DejaVuSans-Bold-65" x="63.287109"/>
      <use xlink:href="#DejaVuSans-Bold-61" x="131.109375"/>
      <use xlink:href="#DejaVuSans-Bold-72" x="198.589844"/>
     </g>
    </g>
   </g>
   <g id="matplotlib.axis_2">
    <g id="ytick_1">
     <g id="line2d_11">
      <path d="M 58.525625 516.037187 
L 993.695625 516.037187 
" clip-path="url(#p0f100840ae)" style="fill: none; stroke: #b0b0b0; stroke-opacity: 0.2; stroke-width: 0.5; stroke-linecap: square"/>
     </g>
     <g id="line2d_12">
      <defs>
       <path id="mdc3b849ea4" d="M 0 0 
L -3.5 0 
" style="stroke: #000000; stroke-width: 0.8"/>
      </defs>
      <g>
       <use xlink:href="#mdc3b849ea4" x="58.525625" y="516.037187" style="stroke: #000000; stroke-width: 0.8"/>
      </g>
     </g>
     <g id="text_12">
      <!-- 0 -->
      <g transform="translate(40.073125 522.875781) scale(0.18 -0.18)">
       <use xlink:href="#DejaVuSans-30"/>
      </g>
     </g>
    </g>
    <g id="ytick_2">
     <g id="line2d_13">
      <path d="M 58.525625 411.904297 
L 993.695625 411.904297 
" clip-path="url(#p0f100840ae)" style="fill: none; stroke: #b0b0b0; stroke-opacity: 0.2; stroke-width: 0.5; stroke-linecap: square"/>
     </g>
     <g id="line2d_14">
      <g>
       <use xlink:href="#mdc3b849ea4" x="58.525625" y="411.904297" style="stroke: #000000; stroke-width: 0.8"/>
      </g>
     </g>
     <g id="text_13">
      <!-- 20 -->
      <g transform="translate(28.620625 418.742891) scale(0.18 -0.18)">
       <use xlink:href="#DejaVuSans-32"/>
       <use xlink:href="#DejaVuSans-30" x="63.623047"/>
      </g>
     </g>
    </g>
    <g id="ytick_3">
     <g id="line2d_15">
      <path d="M 58.525625 307.771407 
L 993.695625 307.771407 
" clip-path="url(#p0f100840ae)" style="fill: none; stroke: #b0b0b0; stroke-opacity: 0.2; stroke-width: 0.5; stroke-linecap: square"/>
     </g>
     <g id="line2d_16">
      <g>
       <use xlink:href="#mdc3b849ea4" x="58.525625" y="307.771407" style="stroke: #000000; stroke-width: 0.8"/>
      </g>
     </g>
     <g id="text_14">
      <!-- 40 -->
      <g transform="translate(28.620625 314.610001) scale(0.18 -0.18)">
       <use xlink:href="#DejaVuSans-34"/>
       <use xlink:href="#DejaVuSans-30" x="63.623047"/>
      </g>
     </g>
    </g>
    <g id="ytick_4">
     <g id="line2d_17">
      <path d="M 58.525625 203.638516 
L 993.695625 203.638516 
" clip-path="url(#p0f100840ae)" style="fill: none; stroke: #b0b0b0; stroke-opacity: 0.2; stroke-width: 0.5; stroke-linecap: square"/>
     </g>
     <g id="line2d_18">
      <g>
       <use xlink:href="#mdc3b849ea4" x="58.525625" y="203.638516" style="stroke: #000000; stroke-width: 0.8"/>
      </g>
     </g>
     <g id="text_15">
      <!-- 60 -->
      <g transform="translate(28.620625 210.47711) scale(0.18 -0.18)">
       <use xlink:href="#DejaVuSans-36"/>
       <use xlink:href="#DejaVuSans-30" x="63.623047"/>
      </g>
     </g>
    </g>
    <g id="ytick_5">
     <g id="line2d_19">
      <path d="M 58.525625 99.505626 
L 993.695625 99.505626 
" clip-path="url(#p0f100840ae)" style="fill: none; stroke: #b0b0b0; stroke-opacity: 0.2; stroke-width: 0.5; stroke-linecap: square"/>
     </g>
     <g id="line2d_20">
      <g>
       <use xlink:href="#mdc3b849ea4" x="58.525625" y="99.505626" style="stroke: #000000; stroke-width: 0.8"/>
      </g>
     </g>
     <g id="text_16">
      <!-- 80 -->
      <g transform="translate(28.620625 106.34422) scale(0.18 -0.18)">
       <use xlink:href="#DejaVuSans-38"/>
       <use xlink:href="#DejaVuSans-30" x="63.623047"/>
      </g>
     </g>
    </g>
    <g id="text_17">
     <!-- Number of Publications -->
     <g transform="translate(20.877187 399.982187) rotate(-90) scale(0.18 -0.18)">
      <defs>
       <path id="DejaVuSans-Bold-4e" d="M 588 4666 
L 1931 4666 
L 3628 1466 
L 3628 4666 
L 4769 4666 
L 4769 0 
L 3425 0 
L 1728 3200 
L 1728 0 
L 588 0 
L 588 4666 
z
" transform="scale(0.015625)"/>
       <path id="DejaVuSans-Bold-75" d="M 500 1363 
L 500 3500 
L 1625 3500 
L 1625 3150 
Q 1625 2866 1622 2436 
Q 1619 2006 1619 1863 
Q 1619 1441 1641 1255 
Q 1663 1069 1716 984 
Q 1784 875 1895 815 
Q 2006 756 2150 756 
Q 2500 756 2700 1025 
Q 2900 1294 2900 1772 
L 2900 3500 
L 4019 3500 
L 4019 0 
L 2900 0 
L 2900 506 
Q 2647 200 2364 54 
Q 2081 -91 1741 -91 
Q 1134 -91 817 281 
Q 500 653 500 1363 
z
" transform="scale(0.015625)"/>
       <path id="DejaVuSans-Bold-6d" d="M 3781 2919 
Q 3994 3244 4286 3414 
Q 4578 3584 4928 3584 
Q 5531 3584 5847 3212 
Q 6163 2841 6163 2131 
L 6163 0 
L 5038 0 
L 5038 1825 
Q 5041 1866 5042 1909 
Q 5044 1953 5044 2034 
Q 5044 2406 4934 2573 
Q 4825 2741 4581 2741 
Q 4263 2741 4089 2478 
Q 3916 2216 3909 1719 
L 3909 0 
L 2784 0 
L 2784 1825 
Q 2784 2406 2684 2573 
Q 2584 2741 2328 2741 
Q 2006 2741 1831 2477 
Q 1656 2213 1656 1722 
L 1656 0 
L 531 0 
L 531 3500 
L 1656 3500 
L 1656 2988 
Q 1863 3284 2130 3434 
Q 2397 3584 2719 3584 
Q 3081 3584 3359 3409 
Q 3638 3234 3781 2919 
z
" transform="scale(0.015625)"/>
       <path id="DejaVuSans-Bold-62" d="M 2400 722 
Q 2759 722 2948 984 
Q 3138 1247 3138 1747 
Q 3138 2247 2948 2509 
Q 2759 2772 2400 2772 
Q 2041 2772 1848 2508 
Q 1656 2244 1656 1747 
Q 1656 1250 1848 986 
Q 2041 722 2400 722 
z
M 1656 2988 
Q 1888 3294 2169 3439 
Q 2450 3584 2816 3584 
Q 3463 3584 3878 3070 
Q 4294 2556 4294 1747 
Q 4294 938 3878 423 
Q 3463 -91 2816 -91 
Q 2450 -91 2169 54 
Q 1888 200 1656 506 
L 1656 0 
L 538 0 
L 538 4863 
L 1656 4863 
L 1656 2988 
z
" transform="scale(0.015625)"/>
       <path id="DejaVuSans-Bold-20" transform="scale(0.015625)"/>
       <path id="DejaVuSans-Bold-6f" d="M 2203 2784 
Q 1831 2784 1636 2517 
Q 1441 2250 1441 1747 
Q 1441 1244 1636 976 
Q 1831 709 2203 709 
Q 2569 709 2762 976 
Q 2956 1244 2956 1747 
Q 2956 2250 2762 2517 
Q 2569 2784 2203 2784 
z
M 2203 3584 
Q 3106 3584 3614 3096 
Q 4122 2609 4122 1747 
Q 4122 884 3614 396 
Q 3106 -91 2203 -91 
Q 1297 -91 786 396 
Q 275 884 275 1747 
Q 275 2609 786 3096 
Q 1297 3584 2203 3584 
z
" transform="scale(0.015625)"/>
       <path id="DejaVuSans-Bold-66" d="M 2841 4863 
L 2841 4128 
L 2222 4128 
Q 1984 4128 1890 4042 
Q 1797 3956 1797 3744 
L 1797 3500 
L 2753 3500 
L 2753 2700 
L 1797 2700 
L 1797 0 
L 678 0 
L 678 2700 
L 122 2700 
L 122 3500 
L 678 3500 
L 678 3744 
Q 678 4316 997 4589 
Q 1316 4863 1984 4863 
L 2841 4863 
z
" transform="scale(0.015625)"/>
       <path id="DejaVuSans-Bold-50" d="M 588 4666 
L 2584 4666 
Q 3475 4666 3951 4270 
Q 4428 3875 4428 3144 
Q 4428 2409 3951 2014 
Q 3475 1619 2584 1619 
L 1791 1619 
L 1791 0 
L 588 0 
L 588 4666 
z
M 1791 3794 
L 1791 2491 
L 2456 2491 
Q 2806 2491 2997 2661 
Q 3188 2831 3188 3144 
Q 3188 3456 2997 3625 
Q 2806 3794 2456 3794 
L 1791 3794 
z
" transform="scale(0.015625)"/>
       <path id="DejaVuSans-Bold-6c" d="M 538 4863 
L 1656 4863 
L 1656 0 
L 538 0 
L 538 4863 
z
" transform="scale(0.015625)"/>
       <path id="DejaVuSans-Bold-69" d="M 538 3500 
L 1656 3500 
L 1656 0 
L 538 0 
L 538 3500 
z
M 538 4863 
L 1656 4863 
L 1656 3950 
L 538 3950 
L 538 4863 
z
" transform="scale(0.015625)"/>
       <path id="DejaVuSans-Bold-63" d="M 3366 3391 
L 3366 2478 
Q 3138 2634 2908 2709 
Q 2678 2784 2431 2784 
Q 1963 2784 1702 2511 
Q 1441 2238 1441 1747 
Q 1441 1256 1702 982 
Q 1963 709 2431 709 
Q 2694 709 2930 787 
Q 3166 866 3366 1019 
L 3366 103 
Q 3103 6 2833 -42 
Q 2563 -91 2291 -91 
Q 1344 -91 809 395 
Q 275 881 275 1747 
Q 275 2613 809 3098 
Q 1344 3584 2291 3584 
Q 2566 3584 2833 3536 
Q 3100 3488 3366 3391 
z
" transform="scale(0.015625)"/>
       <path id="DejaVuSans-Bold-74" d="M 1759 4494 
L 1759 3500 
L 2913 3500 
L 2913 2700 
L 1759 2700 
L 1759 1216 
Q 1759 972 1856 886 
Q 1953 800 2241 800 
L 2816 800 
L 2816 0 
L 1856 0 
Q 1194 0 917 276 
Q 641 553 641 1216 
L 641 2700 
L 84 2700 
L 84 3500 
L 641 3500 
L 641 4494 
L 1759 4494 
z
" transform="scale(0.015625)"/>
       <path id="DejaVuSans-Bold-6e" d="M 4056 2131 
L 4056 0 
L 2931 0 
L 2931 347 
L 2931 1631 
Q 2931 2084 2911 2256 
Q 2891 2428 2841 2509 
Q 2775 2619 2662 2680 
Q 2550 2741 2406 2741 
Q 2056 2741 1856 2470 
Q 1656 2200 1656 1722 
L 1656 0 
L 538 0 
L 538 3500 
L 1656 3500 
L 1656 2988 
Q 1909 3294 2193 3439 
Q 2478 3584 2822 3584 
Q 3428 3584 3742 3212 
Q 4056 2841 4056 2131 
z
" transform="scale(0.015625)"/>
       <path id="DejaVuSans-Bold-73" d="M 3272 3391 
L 3272 2541 
Q 2913 2691 2578 2766 
Q 2244 2841 1947 2841 
Q 1628 2841 1473 2761 
Q 1319 2681 1319 2516 
Q 1319 2381 1436 2309 
Q 1553 2238 1856 2203 
L 2053 2175 
Q 2913 2066 3209 1816 
Q 3506 1566 3506 1031 
Q 3506 472 3093 190 
Q 2681 -91 1863 -91 
Q 1516 -91 1145 -36 
Q 775 19 384 128 
L 384 978 
Q 719 816 1070 734 
Q 1422 653 1784 653 
Q 2113 653 2278 743 
Q 2444 834 2444 1013 
Q 2444 1163 2330 1236 
Q 2216 1309 1875 1350 
L 1678 1375 
Q 931 1469 631 1722 
Q 331 1975 331 2491 
Q 331 3047 712 3315 
Q 1094 3584 1881 3584 
Q 2191 3584 2531 3537 
Q 2872 3491 3272 3391 
z
" transform="scale(0.015625)"/>
      </defs>
      <use xlink:href="#DejaVuSans-Bold-4e"/>
      <use xlink:href="#DejaVuSans-Bold-75" x="83.691406"/>
      <use xlink:href="#DejaVuSans-Bold-6d" x="154.882812"/>
      <use xlink:href="#DejaVuSans-Bold-62" x="259.082031"/>
      <use xlink:href="#DejaVuSans-Bold-65" x="330.664062"/>
      <use xlink:href="#DejaVuSans-Bold-72" x="398.486328"/>
      <use xlink:href="#DejaVuSans-Bold-20" x="447.802734"/>
      <use xlink:href="#DejaVuSans-Bold-6f" x="482.617188"/>
      <use xlink:href="#DejaVuSans-Bold-66" x="551.318359"/>
      <use xlink:href="#DejaVuSans-Bold-20" x="594.824219"/>
      <use xlink:href="#DejaVuSans-Bold-50" x="629.638672"/>
      <use xlink:href="#DejaVuSans-Bold-75" x="702.929688"/>
      <use xlink:href="#DejaVuSans-Bold-62" x="774.121094"/>
      <use xlink:href="#DejaVuSans-Bold-6c" x="845.703125"/>
      <use xlink:href="#DejaVuSans-Bold-69" x="879.980469"/>
      <use xlink:href="#DejaVuSans-Bold-63" x="914.257812"/>
      <use xlink:href="#DejaVuSans-Bold-61" x="973.535156"/>
      <use xlink:href="#DejaVuSans-Bold-74" x="1041.015625"/>
      <use xlink:href="#DejaVuSans-Bold-69" x="1088.818359"/>
      <use xlink:href="#DejaVuSans-Bold-6f" x="1123.095703"/>
      <use xlink:href="#DejaVuSans-Bold-6e" x="1191.796875"/>
      <use xlink:href="#DejaVuSans-Bold-73" x="1262.988281"/>
     </g>
    </g>
   </g>
   <g id="patch_3">
    <path d="M 101.033352 516.037187 
L 170.433723 516.037187 
L 170.433723 510.830543 
L 101.033352 510.830543 
z
" clip-path="url(#p0f100840ae)" style="fill: #2e86ab; opacity: 0.85; stroke: #ffffff; stroke-linejoin: miter"/>
   </g>
   <g id="patch_4">
    <path d="M 187.783816 516.037187 
L 257.184187 516.037187 
L 257.184187 516.037187 
L 187.783816 516.037187 
z
" clip-path="url(#p0f100840ae)" style="fill: #2e86ab; opacity: 0.85; stroke: #ffffff; stroke-linejoin: miter"/>
   </g>
   <g id="patch_5">
    <path d="M 274.53428 516.037187 
L 343.934651 516.037187 
L 343.934651 500.417254 
L 274.53428 500.417254 
z
" clip-path="url(#p0f100840ae)" style="fill: #2e86ab; opacity: 0.85; stroke: #ffffff; stroke-linejoin: miter"/>
   </g>
   <g id="patch_6">
    <path d="M 361.284744 516.037187 
L 430.685115 516.037187 
L 430.685115 510.830543 
L 361.284744 510.830543 
z
" clip-path="url(#p0f100840ae)" style="fill: #2e86ab; opacity: 0.85; stroke: #ffffff; stroke-linejoin: miter"/>
   </g>
   <g id="patch_7">
    <path d="M 448.035208 516.037187 
L 517.435579 516.037187 
L 517.435579 500.417254 
L 448.035208 500.417254 
z
" clip-path="url(#p0f100840ae)" style="fill: #2e86ab; opacity: 0.85; stroke: #ffffff; stroke-linejoin: miter"/>
   </g>
   <g id="patch_8">
    <path d="M 534.785671 516.037187 
L 604.186042 516.037187 
L 604.186042 510.830543 
L 534.785671 510.830543 
z
" clip-path="url(#p0f100840ae)" style="fill: #2e86ab; opacity: 0.85; stroke: #ffffff; stroke-linejoin: miter"/>
   </g>
   <g id="patch_9">
    <path d="M 621.536135 516.037187 
L 690.936506 516.037187 
L 690.936506 495.210609 
L 621.536135 495.210609 
z
" clip-path="url(#p0f100840ae)" style="fill: #2e86ab; opacity: 0.85; stroke: #ffffff; stroke-linejoin: miter"/>
   </g>
   <g id="patch_10">
    <path d="M 708.286599 516.037187 
L 777.68697 516.037187 
L 777.68697 448.350809 
L 708.286599 448.350809 
z
" clip-path="url(#p0f100840ae)" style="fill: #2e86ab; opacity: 0.85; stroke: #ffffff; stroke-linejoin: miter"/>
   </g>
   <g id="patch_11">
    <path d="M 795.037063 516.037187 
L 864.437434 516.037187 
L 864.437434 422.317586 
L 795.037063 422.317586 
z
" clip-path="url(#p0f100840ae)" style="fill: #2e86ab; opacity: 0.85; stroke: #ffffff; stroke-linejoin: miter"/>
   </g>
   <g id="patch_12">
    <path d="M 881.787527 516.037187 
L 951.187898 516.037187 
L 951.187898 458.764098 
L 881.787527 458.764098 
z
" clip-path="url(#p0f100840ae)" style="fill: #2e86ab; opacity: 0.85; stroke: #ffffff; stroke-linejoin: miter"/>
   </g>
   <g id="patch_13">
    <path d="M 101.033352 510.830543 
L 170.433723 510.830543 
L 170.433723 505.623898 
L 101.033352 505.623898 
z
" clip-path="url(#p0f100840ae)" style="fill: #a23b72; opacity: 0.85; stroke: #ffffff; stroke-linejoin: miter"/>
   </g>
   <g id="patch_14">
    <path d="M 187.783816 516.037187 
L 257.184187 516.037187 
L 257.184187 516.037187 
L 187.783816 516.037187 
z
" clip-path="url(#p0f100840ae)" style="fill: #a23b72; opacity: 0.85; stroke: #ffffff; stroke-linejoin: miter"/>
   </g>
   <g id="patch_15">
    <path d="M 274.53428 500.417254 
L 343.934651 500.417254 
L 343.934651 495.210609 
L 274.53428 495.210609 
z
" clip-path="url(#p0f100840ae)" style="fill: #a23b72; opacity: 0.85; stroke: #ffffff; stroke-linejoin: miter"/>
   </g>
   <g id="patch_16">
    <path d="M 361.284744 510.830543 
L 430.685115 510.830543 
L 430.685115 505.623898 
L 361.284744 505.623898 
z
" clip-path="url(#p0f100840ae)" style="fill: #a23b72; opacity: 0.85; stroke: #ffffff; stroke-linejoin: miter"/>
   </g>
   <g id="patch_17">
    <path d="M 448.035208 500.417254 
L 517.435579 500.417254 
L 517.435579 484.79732 
L 448.035208 484.79732 
z
" clip-path="url(#p0f100840ae)" style="fill: #a23b72; opacity: 0.85; stroke: #ffffff; stroke-linejoin: miter"/>
   </g>
   <g id="patch_18">
    <path d="M 534.785671 510.830543 
L 604.186042 510.830543 
L 604.186042 500.417254 
L 534.785671 500.417254 
z
" clip-path="url(#p0f100840ae)" style="fill: #a23b72; opacity: 0.85; stroke: #ffffff; stroke-linejoin: miter"/>
   </g>
   <g id="patch_19">
    <path d="M 621.536135 495.210609 
L 690.936506 495.210609 
L 690.936506 495.210609 
L 621.536135 495.210609 
z
" clip-path="url(#p0f100840ae)" style="fill: #a23b72; opacity: 0.85; stroke: #ffffff; stroke-linejoin: miter"/>
   </g>
   <g id="patch_20">
    <path d="M 708.286599 448.350809 
L 777.68697 448.350809 
L 777.68697 401.491008 
L 708.286599 401.491008 
z
" clip-path="url(#p0f100840ae)" style="fill: #a23b72; opacity: 0.85; stroke: #ffffff; stroke-linejoin: miter"/>
   </g>
   <g id="patch_21">
    <path d="M 795.037063 422.317586 
L 864.437434 422.317586 
L 864.437434 406.697653 
L 795.037063 406.697653 
z
" clip-path="url(#p0f100840ae)" style="fill: #a23b72; opacity: 0.85; stroke: #ffffff; stroke-linejoin: miter"/>
   </g>
   <g id="patch_22">
    <path d="M 881.787527 458.764098 
L 951.187898 458.764098 
L 951.187898 396.284364 
L 881.787527 396.284364 
z
" clip-path="url(#p0f100840ae)" style="fill: #a23b72; opacity: 0.85; stroke: #ffffff; stroke-linejoin: miter"/>
   </g>
   <g id="patch_23">
    <path d="M 101.033352 505.623898 
L 170.433723 505.623898 
L 170.433723 505.623898 
L 101.033352 505.623898 
z
" clip-path="url(#p0f100840ae)" style="fill: #f18f01; opacity: 0.85; stroke: #ffffff; stroke-linejoin: miter"/>
   </g>
   <g id="patch_24">
    <path d="M 187.783816 516.037187 
L 257.184187 516.037187 
L 257.184187 516.037187 
L 187.783816 516.037187 
z
" clip-path="url(#p0f100840ae)" style="fill: #f18f01; opacity: 0.85; stroke: #ffffff; stroke-linejoin: miter"/>
   </g>
   <g id="patch_25">
    <path d="M 274.53428 495.210609 
L 343.934651 495.210609 
L 343.934651 490.003965 
L 274.53428 490.003965 
z
" clip-path="url(#p0f100840ae)" style="fill: #f18f01; opacity: 0.85; stroke: #ffffff; stroke-linejoin: miter"/>
   </g>
   <g id="patch_26">
    <path d="M 361.284744 505.623898 
L 430.685115 505.623898 
L 430.685115 505.623898 
L 361.284744 505.623898 
z
" clip-path="url(#p0f100840ae)" style="fill: #f18f01; opacity: 0.85; stroke: #ffffff; stroke-linejoin: miter"/>
   </g>
   <g id="patch_27">
    <path d="M 448.035208 484.79732 
L 517.435579 484.79732 
L 517.435579 474.384031 
L 448.035208 474.384031 
z
" clip-path="url(#p0f100840ae)" style="fill: #f18f01; opacity: 0.85; stroke: #ffffff; stroke-linejoin: miter"/>
   </g>
   <g id="patch_28">
    <path d="M 534.785671 500.417254 
L 604.186042 500.417254 
L 604.186042 495.210609 
L 534.785671 495.210609 
z
" clip-path="url(#p0f100840ae)" style="fill: #f18f01; opacity: 0.85; stroke: #ffffff; stroke-linejoin: miter"/>
   </g>
   <g id="patch_29">
    <path d="M 621.536135 495.210609 
L 690.936506 495.210609 
L 690.936506 490.003965 
L 621.536135 490.003965 
z
" clip-path="url(#p0f100840ae)" style="fill: #f18f01; opacity: 0.85; stroke: #ffffff; stroke-linejoin: miter"/>
   </g>
   <g id="patch_30">
    <path d="M 708.286599 401.491008 
L 777.68697 401.491008 
L 777.68697 396.284364 
L 708.286599 396.284364 
z
" clip-path="url(#p0f100840ae)" style="fill: #f18f01; opacity: 0.85; stroke: #ffffff; stroke-linejoin: miter"/>
   </g>
   <g id="patch_31">
    <path d="M 795.037063 406.697653 
L 864.437434 406.697653 
L 864.437434 370.251141 
L 795.037063 370.251141 
z
" clip-path="url(#p0f100840ae)" style="fill: #f18f01; opacity: 0.85; stroke: #ffffff; stroke-linejoin: miter"/>
   </g>
   <g id="patch_32">
    <path d="M 881.787527 396.284364 
L 951.187898 396.284364 
L 951.187898 344.217918 
L 881.787527 344.217918 
z
" clip-path="url(#p0f100840ae)" style="fill: #f18f01; opacity: 0.85; stroke: #ffffff; stroke-linejoin: miter"/>
   </g>
   <g id="patch_33">
    <path d="M 101.033352 505.623898 
L 170.433723 505.623898 
L 170.433723 505.623898 
L 101.033352 505.623898 
z
" clip-path="url(#p0f100840ae)" style="fill: #c73e1d; opacity: 0.85; stroke: #ffffff; stroke-linejoin: miter"/>
   </g>
   <g id="patch_34">
    <path d="M 187.783816 516.037187 
L 257.184187 516.037187 
L 257.184187 516.037187 
L 187.783816 516.037187 
z
" clip-path="url(#p0f100840ae)" style="fill: #c73e1d; opacity: 0.85; stroke: #ffffff; stroke-linejoin: miter"/>
   </g>
   <g id="patch_35">
    <path d="M 274.53428 490.003965 
L 343.934651 490.003965 
L 343.934651 490.003965 
L 274.53428 490.003965 
z
" clip-path="url(#p0f100840ae)" style="fill: #c73e1d; opacity: 0.85; stroke: #ffffff; stroke-linejoin: miter"/>
   </g>
   <g id="patch_36">
    <path d="M 361.284744 505.623898 
L 430.685115 505.623898 
L 430.685115 505.623898 
L 361.284744 505.623898 
z
" clip-path="url(#p0f100840ae)" style="fill: #c73e1d; opacity: 0.85; stroke: #ffffff; stroke-linejoin: miter"/>
   </g>
   <g id="patch_37">
    <path d="M 448.035208 474.384031 
L 517.435579 474.384031 
L 517.435579 474.384031 
L 448.035208 474.384031 
z
" clip-path="url(#p0f100840ae)" style="fill: #c73e1d; opacity: 0.85; stroke: #ffffff; stroke-linejoin: miter"/>
   </g>
   <g id="patch_38">
    <path d="M 534.785671 495.210609 
L 604.186042 495.210609 
L 604.186042 490.003965 
L 534.785671 490.003965 
z
" clip-path="url(#p0f100840ae)" style="fill: #c73e1d; opacity: 0.85; stroke: #ffffff; stroke-linejoin: miter"/>
   </g>
   <g id="patch_39">
    <path d="M 621.536135 490.003965 
L 690.936506 490.003965 
L 690.936506 484.79732 
L 621.536135 484.79732 
z
" clip-path="url(#p0f100840ae)" style="fill: #c73e1d; opacity: 0.85; stroke: #ffffff; stroke-linejoin: miter"/>
   </g>
   <g id="patch_40">
    <path d="M 708.286599 396.284364 
L 777.68697 396.284364 
L 777.68697 380.66443 
L 708.286599 380.66443 
z
" clip-path="url(#p0f100840ae)" style="fill: #c73e1d; opacity: 0.85; stroke: #ffffff; stroke-linejoin: miter"/>
   </g>
   <g id="patch_41">
    <path d="M 795.037063 370.251141 
L 864.437434 370.251141 
L 864.437434 344.217918 
L 795.037063 344.217918 
z
" clip-path="url(#p0f100840ae)" style="fill: #c73e1d; opacity: 0.85; stroke: #ffffff; stroke-linejoin: miter"/>
   </g>
   <g id="patch_42">
    <path d="M 881.787527 344.217918 
L 951.187898 344.217918 
L 951.187898 323.39134 
L 881.787527 323.39134 
z
" clip-path="url(#p0f100840ae)" style="fill: #c73e1d; opacity: 0.85; stroke: #ffffff; stroke-linejoin: miter"/>
   </g>
   <g id="patch_43">
    <path d="M 101.033352 505.623898 
L 170.433723 505.623898 
L 170.433723 505.623898 
L 101.033352 505.623898 
z
" clip-path="url(#p0f100840ae)" style="fill: #4caf50; opacity: 0.85; stroke: #ffffff; stroke-linejoin: miter"/>
   </g>
   <g id="patch_44">
    <path d="M 187.783816 516.037187 
L 257.184187 516.037187 
L 257.184187 516.037187 
L 187.783816 516.037187 
z
" clip-path="url(#p0f100840ae)" style="fill: #4caf50; opacity: 0.85; stroke: #ffffff; stroke-linejoin: miter"/>
   </g>
   <g id="patch_45">
    <path d="M 274.53428 490.003965 
L 343.934651 490.003965 
L 343.934651 490.003965 
L 274.53428 490.003965 
z
" clip-path="url(#p0f100840ae)" style="fill: #4caf50; opacity: 0.85; stroke: #ffffff; stroke-linejoin: miter"/>
   </g>
   <g id="patch_46">
    <path d="M 361.284744 505.623898 
L 430.685115 505.623898 
L 430.685115 505.623898 
L 361.284744 505.623898 
z
" clip-path="url(#p0f100840ae)" style="fill: #4caf50; opacity: 0.85; stroke: #ffffff; stroke-linejoin: miter"/>
   </g>
   <g id="patch_47">
    <path d="M 448.035208 474.384031 
L 517.435579 474.384031 
L 517.435579 474.384031 
L 448.035208 474.384031 
z
" clip-path="url(#p0f100840ae)" style="fill: #4caf50; opacity: 0.85; stroke: #ffffff; stroke-linejoin: miter"/>
   </g>
   <g id="patch_48">
    <path d="M 534.785671 490.003965 
L 604.186042 490.003965 
L 604.186042 490.003965 
L 534.785671 490.003965 
z
" clip-path="url(#p0f100840ae)" style="fill: #4caf50; opacity: 0.85; stroke: #ffffff; stroke-linejoin: miter"/>
   </g>
   <g id="patch_49">
    <path d="M 621.536135 484.79732 
L 690.936506 484.79732 
L 690.936506 484.79732 
L 621.536135 484.79732 
z
" clip-path="url(#p0f100840ae)" style="fill: #4caf50; opacity: 0.85; stroke: #ffffff; stroke-linejoin: miter"/>
   </g>
   <g id="patch_50">
    <path d="M 708.286599 380.66443 
L 777.68697 380.66443 
L 777.68697 370.251141 
L 708.286599 370.251141 
z
" clip-path="url(#p0f100840ae)" style="fill: #4caf50; opacity: 0.85; stroke: #ffffff; stroke-linejoin: miter"/>
   </g>
   <g id="patch_51">
    <path d="M 795.037063 344.217918 
L 864.437434 344.217918 
L 864.437434 323.39134 
L 795.037063 323.39134 
z
" clip-path="url(#p0f100840ae)" style="fill: #4caf50; opacity: 0.85; stroke: #ffffff; stroke-linejoin: miter"/>
   </g>
   <g id="patch_52">
    <path d="M 881.787527 323.39134 
L 951.187898 323.39134 
L 951.187898 292.151473 
L 881.787527 292.151473 
z
" clip-path="url(#p0f100840ae)" style="fill: #4caf50; opacity: 0.85; stroke: #ffffff; stroke-linejoin: miter"/>
   </g>
   <g id="patch_53">
    <path d="M 101.033352 505.623898 
L 170.433723 505.623898 
L 170.433723 505.623898 
L 101.033352 505.623898 
z
" clip-path="url(#p0f100840ae)" style="fill: #9c27b0; opacity: 0.85; stroke: #ffffff; stroke-linejoin: miter"/>
   </g>
   <g id="patch_54">
    <path d="M 187.783816 516.037187 
L 257.184187 516.037187 
L 257.184187 516.037187 
L 187.783816 516.037187 
z
" clip-path="url(#p0f100840ae)" style="fill: #9c27b0; opacity: 0.85; stroke: #ffffff; stroke-linejoin: miter"/>
   </g>
   <g id="patch_55">
    <path d="M 274.53428 490.003965 
L 343.934651 490.003965 
L 343.934651 484.79732 
L 274.53428 484.79732 
z
" clip-path="url(#p0f100840ae)" style="fill: #9c27b0; opacity: 0.85; stroke: #ffffff; stroke-linejoin: miter"/>
   </g>
   <g id="patch_56">
    <path d="M 361.284744 505.623898 
L 430.685115 505.623898 
L 430.685115 505.623898 
L 361.284744 505.623898 
z
" clip-path="url(#p0f100840ae)" style="fill: #9c27b0; opacity: 0.85; stroke: #ffffff; stroke-linejoin: miter"/>
   </g>
   <g id="patch_57">
    <path d="M 448.035208 474.384031 
L 517.435579 474.384031 
L 517.435579 474.384031 
L 448.035208 474.384031 
z
" clip-path="url(#p0f100840ae)" style="fill: #9c27b0; opacity: 0.85; stroke: #ffffff; stroke-linejoin: miter"/>
   </g>
   <g id="patch_58">
    <path d="M 534.785671 490.003965 
L 604.186042 490.003965 
L 604.186042 484.79732 
L 534.785671 484.79732 
z
" clip-path="url(#p0f100840ae)" style="fill: #9c27b0; opacity: 0.85; stroke: #ffffff; stroke-linejoin: miter"/>
   </g>
   <g id="patch_59">
    <path d="M 621.536135 484.79732 
L 690.936506 484.79732 
L 690.936506 463.970742 
L 621.536135 463.970742 
z
" clip-path="url(#p0f100840ae)" style="fill: #9c27b0; opacity: 0.85; stroke: #ffffff; stroke-linejoin: miter"/>
   </g>
   <g id="patch_60">
    <path d="M 708.286599 370.251141 
L 777.68697 370.251141 
L 777.68697 349.424563 
L 708.286599 349.424563 
z
" clip-path="url(#p0f100840ae)" style="fill: #9c27b0; opacity: 0.85; stroke: #ffffff; stroke-linejoin: miter"/>
   </g>
   <g id="patch_61">
    <path d="M 795.037063 323.39134 
L 864.437434 323.39134 
L 864.437434 312.978051 
L 795.037063 312.978051 
z
" clip-path="url(#p0f100840ae)" style="fill: #9c27b0; opacity: 0.85; stroke: #ffffff; stroke-linejoin: miter"/>
   </g>
   <g id="patch_62">
    <path d="M 881.787527 292.151473 
L 951.187898 292.151473 
L 951.187898 292.151473 
L 881.787527 292.151473 
z
" clip-path="url(#p0f100840ae)" style="fill: #9c27b0; opacity: 0.85; stroke: #ffffff; stroke-linejoin: miter"/>
   </g>
   <g id="patch_63">
    <path d="M 101.033352 505.623898 
L 170.433723 505.623898 
L 170.433723 505.623898 
L 101.033352 505.623898 
z
" clip-path="url(#p0f100840ae)" style="fill: #ff9800; opacity: 0.85; stroke: #ffffff; stroke-linejoin: miter"/>
   </g>
   <g id="patch_64">
    <path d="M 187.783816 516.037187 
L 257.184187 516.037187 
L 257.184187 516.037187 
L 187.783816 516.037187 
z
" clip-path="url(#p0f100840ae)" style="fill: #ff9800; opacity: 0.85; stroke: #ffffff; stroke-linejoin: miter"/>
   </g>
   <g id="patch_65">
    <path d="M 274.53428 484.79732 
L 343.934651 484.79732 
L 343.934651 484.79732 
L 274.53428 484.79732 
z
" clip-path="url(#p0f100840ae)" style="fill: #ff9800; opacity: 0.85; stroke: #ffffff; stroke-linejoin: miter"/>
   </g>
   <g id="patch_66">
    <path d="M 361.284744 505.623898 
L 430.685115 505.623898 
L 430.685115 505.623898 
L 361.284744 505.623898 
z
" clip-path="url(#p0f100840ae)" style="fill: #ff9800; opacity: 0.85; stroke: #ffffff; stroke-linejoin: miter"/>
   </g>
   <g id="patch_67">
    <path d="M 448.035208 474.384031 
L 517.435579 474.384031 
L 517.435579 474.384031 
L 448.035208 474.384031 
z
" clip-path="url(#p0f100840ae)" style="fill: #ff9800; opacity: 0.85; stroke: #ffffff; stroke-linejoin: miter"/>
   </g>
   <g id="patch_68">
    <path d="M 534.785671 484.79732 
L 604.186042 484.79732 
L 604.186042 479.590676 
L 534.785671 479.590676 
z
" clip-path="url(#p0f100840ae)" style="fill: #ff9800; opacity: 0.85; stroke: #ffffff; stroke-linejoin: miter"/>
   </g>
   <g id="patch_69">
    <path d="M 621.536135 463.970742 
L 690.936506 463.970742 
L 690.936506 458.764098 
L 621.536135 458.764098 
z
" clip-path="url(#p0f100840ae)" style="fill: #ff9800; opacity: 0.85; stroke: #ffffff; stroke-linejoin: miter"/>
   </g>
   <g id="patch_70">
    <path d="M 708.286599 349.424563 
L 777.68697 349.424563 
L 777.68697 344.217918 
L 708.286599 344.217918 
z
" clip-path="url(#p0f100840ae)" style="fill: #ff9800; opacity: 0.85; stroke: #ffffff; stroke-linejoin: miter"/>
   </g>
   <g id="patch_71">
    <path d="M 795.037063 312.978051 
L 864.437434 312.978051 
L 864.437434 292.151473 
L 795.037063 292.151473 
z
" clip-path="url(#p0f100840ae)" style="fill: #ff9800; opacity: 0.85; stroke: #ffffff; stroke-linejoin: miter"/>
   </g>
   <g id="patch_72">
    <path d="M 881.787527 292.151473 
L 951.187898 292.151473 
L 951.187898 276.53154 
L 881.787527 276.53154 
z
" clip-path="url(#p0f100840ae)" style="fill: #ff9800; opacity: 0.85; stroke: #ffffff; stroke-linejoin: miter"/>
   </g>
   <g id="patch_73">
    <path d="M 101.033352 505.623898 
L 170.433723 505.623898 
L 170.433723 505.623898 
L 101.033352 505.623898 
z
" clip-path="url(#p0f100840ae)" style="fill: #607d8b; opacity: 0.85; stroke: #ffffff; stroke-linejoin: miter"/>
   </g>
   <g id="patch_74">
    <path d="M 187.783816 516.037187 
L 257.184187 516.037187 
L 257.184187 516.037187 
L 187.783816 516.037187 
z
" clip-path="url(#p0f100840ae)" style="fill: #607d8b; opacity: 0.85; stroke: #ffffff; stroke-linejoin: miter"/>
   </g>
   <g id="patch_75">
    <path d="M 274.53428 484.79732 
L 343.934651 484.79732 
L 343.934651 484.79732 
L 274.53428 484.79732 
z
" clip-path="url(#p0f100840ae)" style="fill: #607d8b; opacity: 0.85; stroke: #ffffff; stroke-linejoin: miter"/>
   </g>
   <g id="patch_76">
    <path d="M 361.284744 505.623898 
L 430.685115 505.623898 
L 430.685115 505.623898 
L 361.284744 505.623898 
z
" clip-path="url(#p0f100840ae)" style="fill: #607d8b; opacity: 0.85; stroke: #ffffff; stroke-linejoin: miter"/>
   </g>
   <g id="patch_77">
    <path d="M 448.035208 474.384031 
L 517.435579 474.384031 
L 517.435579 474.384031 
L 448.035208 474.384031 
z
" clip-path="url(#p0f100840ae)" style="fill: #607d8b; opacity: 0.85; stroke: #ffffff; stroke-linejoin: miter"/>
   </g>
   <g id="patch_78">
    <path d="M 534.785671 479.590676 
L 604.186042 479.590676 
L 604.186042 479.590676 
L 534.785671 479.590676 
z
" clip-path="url(#p0f100840ae)" style="fill: #607d8b; opacity: 0.85; stroke: #ffffff; stroke-linejoin: miter"/>
   </g>
   <g id="patch_79">
    <path d="M 621.536135 458.764098 
L 690.936506 458.764098 
L 690.936506 458.764098 
L 621.536135 458.764098 
z
" clip-path="url(#p0f100840ae)" style="fill: #607d8b; opacity: 0.85; stroke: #ffffff; stroke-linejoin: miter"/>
   </g>
   <g id="patch_80">
    <path d="M 708.286599 344.217918 
L 777.68697 344.217918 
L 777.68697 328.597985 
L 708.286599 328.597985 
z
" clip-path="url(#p0f100840ae)" style="fill: #607d8b; opacity: 0.85; stroke: #ffffff; stroke-linejoin: miter"/>
   </g>
   <g id="patch_81">
    <path d="M 795.037063 292.151473 
L 864.437434 292.151473 
L 864.437434 266.118251 
L 795.037063 266.118251 
z
" clip-path="url(#p0f100840ae)" style="fill: #607d8b; opacity: 0.85; stroke: #ffffff; stroke-linejoin: miter"/>
   </g>
   <g id="patch_82">
    <path d="M 881.787527 276.53154 
L 951.187898 276.53154 
L 951.187898 271.324895 
L 881.787527 271.324895 
z
" clip-path="url(#p0f100840ae)" style="fill: #607d8b; opacity: 0.85; stroke: #ffffff; stroke-linejoin: miter"/>
   </g>
   <g id="patch_83">
    <path d="M 101.033352 505.623898 
L 170.433723 505.623898 
L 170.433723 500.417254 
L 101.033352 500.417254 
z
" clip-path="url(#p0f100840ae)" style="fill: #8bc34a; opacity: 0.85; stroke: #ffffff; stroke-linejoin: miter"/>
   </g>
   <g id="patch_84">
    <path d="M 187.783816 516.037187 
L 257.184187 516.037187 
L 257.184187 510.830543 
L 187.783816 510.830543 
z
" clip-path="url(#p0f100840ae)" style="fill: #8bc34a; opacity: 0.85; stroke: #ffffff; stroke-linejoin: miter"/>
   </g>
   <g id="patch_85">
    <path d="M 274.53428 484.79732 
L 343.934651 484.79732 
L 343.934651 458.764098 
L 274.53428 458.764098 
z
" clip-path="url(#p0f100840ae)" style="fill: #8bc34a; opacity: 0.85; stroke: #ffffff; stroke-linejoin: miter"/>
   </g>
   <g id="patch_86">
    <path d="M 361.284744 505.623898 
L 430.685115 505.623898 
L 430.685115 490.003965 
L 361.284744 490.003965 
z
" clip-path="url(#p0f100840ae)" style="fill: #8bc34a; opacity: 0.85; stroke: #ffffff; stroke-linejoin: miter"/>
   </g>
   <g id="patch_87">
    <path d="M 448.035208 474.384031 
L 517.435579 474.384031 
L 517.435579 469.177387 
L 448.035208 469.177387 
z
" clip-path="url(#p0f100840ae)" style="fill: #8bc34a; opacity: 0.85; stroke: #ffffff; stroke-linejoin: miter"/>
   </g>
   <g id="patch_88">
    <path d="M 534.785671 479.590676 
L 604.186042 479.590676 
L 604.186042 458.764098 
L 534.785671 458.764098 
z
" clip-path="url(#p0f100840ae)" style="fill: #8bc34a; opacity: 0.85; stroke: #ffffff; stroke-linejoin: miter"/>
   </g>
   <g id="patch_89">
    <path d="M 621.536135 458.764098 
L 690.936506 458.764098 
L 690.936506 417.110942 
L 621.536135 417.110942 
z
" clip-path="url(#p0f100840ae)" style="fill: #8bc34a; opacity: 0.85; stroke: #ffffff; stroke-linejoin: miter"/>
   </g>
   <g id="patch_90">
    <path d="M 708.286599 328.597985 
L 777.68697 328.597985 
L 777.68697 271.324895 
L 708.286599 271.324895 
z
" clip-path="url(#p0f100840ae)" style="fill: #8bc34a; opacity: 0.85; stroke: #ffffff; stroke-linejoin: miter"/>
   </g>
   <g id="patch_91">
    <path d="M 795.037063 266.118251 
L 864.437434 266.118251 
L 864.437434 156.778716 
L 795.037063 156.778716 
z
" clip-path="url(#p0f100840ae)" style="fill: #8bc34a; opacity: 0.85; stroke: #ffffff; stroke-linejoin: miter"/>
   </g>
   <g id="patch_92">
    <path d="M 881.787527 271.324895 
L 951.187898 271.324895 
L 951.187898 68.265759 
L 881.787527 68.265759 
z
" clip-path="url(#p0f100840ae)" style="fill: #8bc34a; opacity: 0.85; stroke: #ffffff; stroke-linejoin: miter"/>
   </g>
   <g id="patch_93">
    <path d="M 58.525625 516.037187 
L 58.525625 45.877187 
" style="fill: none; stroke: #000000; stroke-width: 1.2; stroke-linejoin: miter; stroke-linecap: square"/>
   </g>
   <g id="patch_94">
    <path d="M 58.525625 516.037187 
L 993.695625 516.037187 
" style="fill: none; stroke: #000000; stroke-width: 1.2; stroke-linejoin: miter; stroke-linecap: square"/>
   </g>
   <g id="text_18">
    <!-- 3 -->
    <g style="fill: #ffffff" transform="translate(305.059778 511.538471) scale(0.12 -0.12)">
     <defs>
      <path id="DejaVuSans-Bold-33" d="M 2981 2516 
Q 3453 2394 3698 2092 
Q 3944 1791 3944 1325 
Q 3944 631 3412 270 
Q 2881 -91 1863 -91 
Q 1503 -91 1142 -33 
Q 781 25 428 141 
L 428 1069 
Q 766 900 1098 814 
Q 1431 728 1753 728 
Q 2231 728 2486 893 
Q 2741 1059 2741 1369 
Q 2741 1688 2480 1852 
Q 2219 2016 1709 2016 
L 1228 2016 
L 1228 2791 
L 1734 2791 
Q 2188 2791 2409 2933 
Q 2631 3075 2631 3366 
Q 2631 3634 2415 3781 
Q 2200 3928 1806 3928 
Q 1516 3928 1219 3862 
Q 922 3797 628 3669 
L 628 4550 
Q 984 4650 1334 4700 
Q 1684 4750 2022 4750 
Q 2931 4750 3382 4451 
Q 3834 4153 3834 3553 
Q 3834 3144 3618 2883 
Q 3403 2622 2981 2516 
z
" transform="scale(0.015625)"/>
     </defs>
     <use xlink:href="#DejaVuSans-Bold-33"/>
    </g>
   </g>
   <g id="text_19">
    <!-- 3 -->
    <g style="fill: #ffffff" transform="translate(478.560706 511.538471) scale(0.12 -0.12)">
     <use xlink:href="#DejaVuSans-Bold-33"/>
    </g>
   </g>
   <g id="text_20">
    <!-- 4 -->
    <g style="fill: #ffffff" transform="translate(652.061633 508.935148) scale(0.12 -0.12)">
     <defs>
      <path id="DejaVuSans-Bold-34" d="M 2356 3675 
L 1038 1722 
L 2356 1722 
L 2356 3675 
z
M 2156 4666 
L 3494 4666 
L 3494 1722 
L 4159 1722 
L 4159 850 
L 3494 850 
L 3494 0 
L 2356 0 
L 2356 850 
L 288 850 
L 288 1881 
L 2156 4666 
z
" transform="scale(0.015625)"/>
     </defs>
     <use xlink:href="#DejaVuSans-Bold-34"/>
    </g>
   </g>
   <g id="text_21">
    <!-- 13 -->
    <g style="fill: #ffffff" transform="translate(734.63741 485.505248) scale(0.12 -0.12)">
     <defs>
      <path id="DejaVuSans-Bold-31" d="M 750 831 
L 1813 831 
L 1813 3847 
L 722 3622 
L 722 4441 
L 1806 4666 
L 2950 4666 
L 2950 831 
L 4013 831 
L 4013 0 
L 750 0 
L 750 831 
z
" transform="scale(0.015625)"/>
     </defs>
     <use xlink:href="#DejaVuSans-Bold-31"/>
     <use xlink:href="#DejaVuSans-Bold-33" x="69.580078"/>
    </g>
   </g>
   <g id="text_22">
    <!-- 18 -->
    <g style="fill: #ffffff" transform="translate(821.387873 472.488637) scale(0.12 -0.12)">
     <defs>
      <path id="DejaVuSans-Bold-38" d="M 2228 2088 
Q 1891 2088 1709 1903 
Q 1528 1719 1528 1375 
Q 1528 1031 1709 848 
Q 1891 666 2228 666 
Q 2563 666 2741 848 
Q 2919 1031 2919 1375 
Q 2919 1722 2741 1905 
Q 2563 2088 2228 2088 
z
M 1350 2484 
Q 925 2613 709 2878 
Q 494 3144 494 3541 
Q 494 4131 934 4440 
Q 1375 4750 2228 4750 
Q 3075 4750 3515 4442 
Q 3956 4134 3956 3541 
Q 3956 3144 3739 2878 
Q 3522 2613 3097 2484 
Q 3572 2353 3814 2058 
Q 4056 1763 4056 1313 
Q 4056 619 3595 264 
Q 3134 -91 2228 -91 
Q 1319 -91 855 264 
Q 391 619 391 1313 
Q 391 1763 633 2058 
Q 875 2353 1350 2484 
z
M 1631 3419 
Q 1631 3141 1786 2991 
Q 1941 2841 2228 2841 
Q 2509 2841 2662 2991 
Q 2816 3141 2816 3419 
Q 2816 3697 2662 3845 
Q 2509 3994 2228 3994 
Q 1941 3994 1786 3844 
Q 1631 3694 1631 3419 
z
" transform="scale(0.015625)"/>
     </defs>
     <use xlink:href="#DejaVuSans-Bold-31"/>
     <use xlink:href="#DejaVuSans-Bold-38" x="69.580078"/>
    </g>
   </g>
   <g id="text_23">
    <!-- 11 -->
    <g style="fill: #ffffff" transform="translate(908.138337 490.711893) scale(0.12 -0.12)">
     <use xlink:href="#DejaVuSans-Bold-31"/>
     <use xlink:href="#DejaVuSans-Bold-31" x="69.580078"/>
    </g>
   </g>
   <g id="text_24">
    <!-- 3 -->
    <g style="fill: #ffffff" transform="translate(478.560706 495.918537) scale(0.12 -0.12)">
     <use xlink:href="#DejaVuSans-Bold-33"/>
    </g>
   </g>
   <g id="text_25">
    <!-- 9 -->
    <g style="fill: #ffffff" transform="translate(738.812097 428.232158) scale(0.12 -0.12)">
     <defs>
      <path id="DejaVuSans-Bold-39" d="M 641 103 
L 641 966 
Q 928 831 1190 764 
Q 1453 697 1709 697 
Q 2247 697 2547 995 
Q 2847 1294 2900 1881 
Q 2688 1725 2447 1647 
Q 2206 1569 1925 1569 
Q 1209 1569 770 1986 
Q 331 2403 331 3084 
Q 331 3838 820 4291 
Q 1309 4744 2131 4744 
Q 3044 4744 3544 4128 
Q 4044 3513 4044 2388 
Q 4044 1231 3459 570 
Q 2875 -91 1856 -91 
Q 1528 -91 1228 -42 
Q 928 6 641 103 
z
M 2125 2350 
Q 2441 2350 2600 2554 
Q 2759 2759 2759 3169 
Q 2759 3575 2600 3781 
Q 2441 3988 2125 3988 
Q 1809 3988 1650 3781 
Q 1491 3575 1491 3169 
Q 1491 2759 1650 2554 
Q 1809 2350 2125 2350 
z
" transform="scale(0.015625)"/>
     </defs>
     <use xlink:href="#DejaVuSans-Bold-39"/>
    </g>
   </g>
   <g id="text_26">
    <!-- 3 -->
    <g style="fill: #ffffff" transform="translate(825.562561 417.818869) scale(0.12 -0.12)">
     <use xlink:href="#DejaVuSans-Bold-33"/>
    </g>
   </g>
   <g id="text_27">
    <!-- 12 -->
    <g style="fill: #ffffff" transform="translate(908.138337 430.835481) scale(0.12 -0.12)">
     <defs>
      <path id="DejaVuSans-Bold-32" d="M 1844 884 
L 3897 884 
L 3897 0 
L 506 0 
L 506 884 
L 2209 2388 
Q 2438 2594 2547 2791 
Q 2656 2988 2656 3200 
Q 2656 3528 2436 3728 
Q 2216 3928 1850 3928 
Q 1569 3928 1234 3808 
Q 900 3688 519 3450 
L 519 4475 
Q 925 4609 1322 4679 
Q 1719 4750 2100 4750 
Q 2938 4750 3402 4381 
Q 3866 4013 3866 3353 
Q 3866 2972 3669 2642 
Q 3472 2313 2841 1759 
L 1844 884 
z
" transform="scale(0.015625)"/>
     </defs>
     <use xlink:href="#DejaVuSans-Bold-31"/>
     <use xlink:href="#DejaVuSans-Bold-32" x="69.580078"/>
    </g>
   </g>
   <g id="text_28">
    <!-- 7 -->
    <g style="fill: #ffffff" transform="translate(825.562561 391.785647) scale(0.12 -0.12)">
     <defs>
      <path id="DejaVuSans-Bold-37" d="M 428 4666 
L 3944 4666 
L 3944 3988 
L 2125 0 
L 953 0 
L 2675 3781 
L 428 3781 
L 428 4666 
z
" transform="scale(0.015625)"/>
     </defs>
     <use xlink:href="#DejaVuSans-Bold-37"/>
    </g>
   </g>
   <g id="text_29">
    <!-- 10 -->
    <g style="fill: #ffffff" transform="translate(908.138337 373.562391) scale(0.12 -0.12)">
     <defs>
      <path id="DejaVuSans-Bold-30" d="M 2944 2338 
Q 2944 3213 2780 3570 
Q 2616 3928 2228 3928 
Q 1841 3928 1675 3570 
Q 1509 3213 1509 2338 
Q 1509 1453 1675 1090 
Q 1841 728 2228 728 
Q 2613 728 2778 1090 
Q 2944 1453 2944 2338 
z
M 4147 2328 
Q 4147 1169 3647 539 
Q 3147 -91 2228 -91 
Q 1306 -91 806 539 
Q 306 1169 306 2328 
Q 306 3491 806 4120 
Q 1306 4750 2228 4750 
Q 3147 4750 3647 4120 
Q 4147 3491 4147 2328 
z
" transform="scale(0.015625)"/>
     </defs>
     <use xlink:href="#DejaVuSans-Bold-31"/>
     <use xlink:href="#DejaVuSans-Bold-30" x="69.580078"/>
    </g>
   </g>
   <g id="text_30">
    <!-- 3 -->
    <g style="fill: #ffffff" transform="translate(738.812097 391.785647) scale(0.12 -0.12)">
     <use xlink:href="#DejaVuSans-Bold-33"/>
    </g>
   </g>
   <g id="text_31">
    <!-- 5 -->
    <g style="fill: #ffffff" transform="translate(825.562561 360.54578) scale(0.12 -0.12)">
     <defs>
      <path id="DejaVuSans-Bold-35" d="M 678 4666 
L 3669 4666 
L 3669 3781 
L 1638 3781 
L 1638 3059 
Q 1775 3097 1914 3117 
Q 2053 3138 2203 3138 
Q 3056 3138 3531 2711 
Q 4006 2284 4006 1522 
Q 4006 766 3489 337 
Q 2972 -91 2053 -91 
Q 1656 -91 1267 -14 
Q 878 63 494 219 
L 494 1166 
Q 875 947 1217 837 
Q 1559 728 1863 728 
Q 2300 728 2551 942 
Q 2803 1156 2803 1522 
Q 2803 1891 2551 2103 
Q 2300 2316 1863 2316 
Q 1603 2316 1309 2248 
Q 1016 2181 678 2041 
L 678 4666 
z
" transform="scale(0.015625)"/>
     </defs>
     <use xlink:href="#DejaVuSans-Bold-35"/>
    </g>
   </g>
   <g id="text_32">
    <!-- 4 -->
    <g style="fill: #ffffff" transform="translate(912.313025 337.115879) scale(0.12 -0.12)">
     <use xlink:href="#DejaVuSans-Bold-34"/>
    </g>
   </g>
   <g id="text_33">
    <!-- 4 -->
    <g style="fill: #ffffff" transform="translate(825.562561 337.115879) scale(0.12 -0.12)">
     <use xlink:href="#DejaVuSans-Bold-34"/>
    </g>
   </g>
   <g id="text_34">
    <!-- 6 -->
    <g style="fill: #ffffff" transform="translate(912.313025 311.082657) scale(0.12 -0.12)">
     <defs>
      <path id="DejaVuSans-Bold-36" d="M 2316 2303 
Q 2000 2303 1842 2098 
Q 1684 1894 1684 1484 
Q 1684 1075 1842 870 
Q 2000 666 2316 666 
Q 2634 666 2792 870 
Q 2950 1075 2950 1484 
Q 2950 1894 2792 2098 
Q 2634 2303 2316 2303 
z
M 3803 4544 
L 3803 3681 
Q 3506 3822 3243 3889 
Q 2981 3956 2731 3956 
Q 2194 3956 1894 3657 
Q 1594 3359 1544 2772 
Q 1750 2925 1990 3001 
Q 2231 3078 2516 3078 
Q 3231 3078 3670 2659 
Q 4109 2241 4109 1563 
Q 4109 813 3618 361 
Q 3128 -91 2303 -91 
Q 1394 -91 895 523 
Q 397 1138 397 2266 
Q 397 3422 980 4083 
Q 1563 4744 2578 4744 
Q 2900 4744 3203 4694 
Q 3506 4644 3803 4544 
z
" transform="scale(0.015625)"/>
     </defs>
     <use xlink:href="#DejaVuSans-Bold-36"/>
    </g>
   </g>
   <g id="text_35">
    <!-- 4 -->
    <g style="fill: #ffffff" transform="translate(652.061633 477.695281) scale(0.12 -0.12)">
     <use xlink:href="#DejaVuSans-Bold-34"/>
    </g>
   </g>
   <g id="text_36">
    <!-- 4 -->
    <g style="fill: #ffffff" transform="translate(738.812097 363.149102) scale(0.12 -0.12)">
     <use xlink:href="#DejaVuSans-Bold-34"/>
    </g>
   </g>
   <g id="text_37">
    <!-- 4 -->
    <g style="fill: #ffffff" transform="translate(825.562561 305.876012) scale(0.12 -0.12)">
     <use xlink:href="#DejaVuSans-Bold-34"/>
    </g>
   </g>
   <g id="text_38">
    <!-- 3 -->
    <g style="fill: #ffffff" transform="translate(738.812097 339.719202) scale(0.12 -0.12)">
     <use xlink:href="#DejaVuSans-Bold-33"/>
    </g>
   </g>
   <g id="text_39">
    <!-- 5 -->
    <g style="fill: #ffffff" transform="translate(825.562561 282.446112) scale(0.12 -0.12)">
     <use xlink:href="#DejaVuSans-Bold-35"/>
    </g>
   </g>
   <g id="text_40">
    <!-- 5 -->
    <g style="fill: #ffffff" transform="translate(305.059778 475.091959) scale(0.12 -0.12)">
     <use xlink:href="#DejaVuSans-Bold-35"/>
    </g>
   </g>
   <g id="text_41">
    <!-- 3 -->
    <g style="fill: #ffffff" transform="translate(391.810242 501.125182) scale(0.12 -0.12)">
     <use xlink:href="#DejaVuSans-Bold-33"/>
    </g>
   </g>
   <g id="text_42">
    <!-- 4 -->
    <g style="fill: #ffffff" transform="translate(565.311169 472.488637) scale(0.12 -0.12)">
     <use xlink:href="#DejaVuSans-Bold-34"/>
    </g>
   </g>
   <g id="text_43">
    <!-- 8 -->
    <g style="fill: #ffffff" transform="translate(652.061633 441.24877) scale(0.12 -0.12)">
     <use xlink:href="#DejaVuSans-Bold-38"/>
    </g>
   </g>
   <g id="text_44">
    <!-- 11 -->
    <g style="fill: #ffffff" transform="translate(734.63741 303.27269) scale(0.12 -0.12)">
     <use xlink:href="#DejaVuSans-Bold-31"/>
     <use xlink:href="#DejaVuSans-Bold-31" x="69.580078"/>
    </g>
   </g>
   <g id="text_45">
    <!-- 21 -->
    <g style="fill: #ffffff" transform="translate(821.387873 214.759733) scale(0.12 -0.12)">
     <use xlink:href="#DejaVuSans-Bold-32"/>
     <use xlink:href="#DejaVuSans-Bold-31" x="69.580078"/>
    </g>
   </g>
   <g id="text_46">
    <!-- 39 -->
    <g style="fill: #ffffff" transform="translate(908.138337 173.106577) scale(0.12 -0.12)">
     <use xlink:href="#DejaVuSans-Bold-33"/>
     <use xlink:href="#DejaVuSans-Bold-39" x="69.580078"/>
    </g>
   </g>
   <g id="text_47">
    <!-- 3 -->
    <g transform="translate(129.471507 487.718388) scale(0.18 -0.18)">
     <use xlink:href="#DejaVuSans-Bold-33"/>
    </g>
   </g>
   <g id="text_48">
    <!-- 1 -->
    <g transform="translate(216.22197 498.131677) scale(0.18 -0.18)">
     <use xlink:href="#DejaVuSans-Bold-31"/>
    </g>
   </g>
   <g id="text_49">
    <!-- 11 -->
    <g transform="translate(296.710403 446.065232) scale(0.18 -0.18)">
     <use xlink:href="#DejaVuSans-Bold-31"/>
     <use xlink:href="#DejaVuSans-Bold-31" x="69.580078"/>
    </g>
   </g>
   <g id="text_50">
    <!-- 5 -->
    <g transform="translate(389.722898 477.305099) scale(0.18 -0.18)">
     <use xlink:href="#DejaVuSans-Bold-35"/>
    </g>
   </g>
   <g id="text_51">
    <!-- 9 -->
    <g transform="translate(476.473362 456.478521) scale(0.18 -0.18)">
     <use xlink:href="#DejaVuSans-Bold-39"/>
    </g>
   </g>
   <g id="text_52">
    <!-- 11 -->
    <g transform="translate(556.961794 446.065232) scale(0.18 -0.18)">
     <use xlink:href="#DejaVuSans-Bold-31"/>
     <use xlink:href="#DejaVuSans-Bold-31" x="69.580078"/>
    </g>
   </g>
   <g id="text_53">
    <!-- 19 -->
    <g transform="translate(643.712258 404.412076) scale(0.18 -0.18)">
     <use xlink:href="#DejaVuSans-Bold-31"/>
     <use xlink:href="#DejaVuSans-Bold-39" x="69.580078"/>
    </g>
   </g>
   <g id="text_54">
    <!-- 47 -->
    <g transform="translate(730.462722 258.626029) scale(0.18 -0.18)">
     <use xlink:href="#DejaVuSans-Bold-34"/>
     <use xlink:href="#DejaVuSans-Bold-37" x="69.580078"/>
    </g>
   </g>
   <g id="text_55">
    <!-- 69 -->
    <g transform="translate(817.213186 144.07985) scale(0.18 -0.18)">
     <use xlink:href="#DejaVuSans-Bold-36"/>
     <use xlink:href="#DejaVuSans-Bold-39" x="69.580078"/>
    </g>
   </g>
   <g id="text_56">
    <!-- 86 -->
    <g transform="translate(903.96365 55.566893) scale(0.18 -0.18)">
     <use xlink:href="#DejaVuSans-Bold-38"/>
     <use xlink:href="#DejaVuSans-Bold-36" x="69.580078"/>
    </g>
   </g>
   <g id="text_57">
    <!-- Year and Journal over 261 Publications -->
    <g transform="translate(329.530938 20.877187) scale(0.18 -0.18)">
     <defs>
      <path id="DejaVuSans-Bold-64" d="M 2919 2988 
L 2919 4863 
L 4044 4863 
L 4044 0 
L 2919 0 
L 2919 506 
Q 2688 197 2409 53 
Q 2131 -91 1766 -91 
Q 1119 -91 703 423 
Q 288 938 288 1747 
Q 288 2556 703 3070 
Q 1119 3584 1766 3584 
Q 2128 3584 2408 3439 
Q 2688 3294 2919 2988 
z
M 2181 722 
Q 2541 722 2730 984 
Q 2919 1247 2919 1747 
Q 2919 2247 2730 2509 
Q 2541 2772 2181 2772 
Q 1825 2772 1636 2509 
Q 1447 2247 1447 1747 
Q 1447 1247 1636 984 
Q 1825 722 2181 722 
z
" transform="scale(0.015625)"/>
      <path id="DejaVuSans-Bold-4a" d="M 588 4666 
L 1791 4666 
L 1791 453 
Q 1791 -419 1317 -850 
Q 844 -1281 -116 -1281 
L -359 -1281 
L -359 -372 
L -172 -372 
Q 203 -372 395 -162 
Q 588 47 588 453 
L 588 4666 
z
" transform="scale(0.015625)"/>
      <path id="DejaVuSans-Bold-76" d="M 97 3500 
L 1216 3500 
L 2088 1081 
L 2956 3500 
L 4078 3500 
L 2700 0 
L 1472 0 
L 97 3500 
z
" transform="scale(0.015625)"/>
     </defs>
     <use xlink:href="#DejaVuSans-Bold-59"/>
     <use xlink:href="#DejaVuSans-Bold-65" x="63.287109"/>
     <use xlink:href="#DejaVuSans-Bold-61" x="131.109375"/>
     <use xlink:href="#DejaVuSans-Bold-72" x="198.589844"/>
     <use xlink:href="#DejaVuSans-Bold-20" x="247.90625"/>
     <use xlink:href="#DejaVuSans-Bold-61" x="282.720703"/>
     <use xlink:href="#DejaVuSans-Bold-6e" x="350.201172"/>
     <use xlink:href="#DejaVuSans-Bold-64" x="421.392578"/>
     <use xlink:href="#DejaVuSans-Bold-20" x="492.974609"/>
     <use xlink:href="#DejaVuSans-Bold-4a" x="527.789062"/>
     <use xlink:href="#DejaVuSans-Bold-6f" x="564.996094"/>
     <use xlink:href="#DejaVuSans-Bold-75" x="633.697266"/>
     <use xlink:href="#DejaVuSans-Bold-72" x="704.888672"/>
     <use xlink:href="#DejaVuSans-Bold-6e" x="754.205078"/>
     <use xlink:href="#DejaVuSans-Bold-61" x="825.396484"/>
     <use xlink:href="#DejaVuSans-Bold-6c" x="892.876953"/>
     <use xlink:href="#DejaVuSans-Bold-20" x="927.154297"/>
     <use xlink:href="#DejaVuSans-Bold-6f" x="961.96875"/>
     <use xlink:href="#DejaVuSans-Bold-76" x="1030.669922"/>
     <use xlink:href="#DejaVuSans-Bold-65" x="1095.855469"/>
     <use xlink:href="#DejaVuSans-Bold-72" x="1163.677734"/>
     <use xlink:href="#DejaVuSans-Bold-20" x="1212.994141"/>
     <use xlink:href="#DejaVuSans-Bold-32" x="1247.808594"/>
     <use xlink:href="#DejaVuSans-Bold-36" x="1317.388672"/>
     <use xlink:href="#DejaVuSans-Bold-31" x="1386.96875"/>
     <use xlink:href="#DejaVuSans-Bold-20" x="1456.548828"/>
     <use xlink:href="#DejaVuSans-Bold-50" x="1491.363281"/>
     <use xlink:href="#DejaVuSans-Bold-75" x="1564.654297"/>
     <use xlink:href="#DejaVuSans-Bold-62" x="1635.845703"/>
     <use xlink:href="#DejaVuSans-Bold-6c" x="1707.427734"/>
     <use xlink:href="#DejaVuSans-Bold-69" x="1741.705078"/>
     <use xlink:href="#DejaVuSans-Bold-63" x="1775.982422"/>
     <use xlink:href="#DejaVuSans-Bold-61" x="1835.259766"/>
     <use xlink:href="#DejaVuSans-Bold-74" x="1902.740234"/>
     <use xlink:href="#DejaVuSans-Bold-69" x="1950.542969"/>
     <use xlink:href="#DejaVuSans-Bold-6f" x="1984.820312"/>
     <use xlink:href="#DejaVuSans-Bold-6e" x="2053.521484"/>
     <use xlink:href="#DejaVuSans-Bold-73" x="2124.712891"/>
    </g>
   </g>
   <g id="legend_1">
    <g id="patch_95">
     <path d="M 80.829025 315.483437 
L 506.0734 315.483437 
Q 509.6734 315.483437 509.6734 311.883437 
L 509.6734 49.477188 
Q 509.6734 45.877187 506.0734 45.877187 
L 80.829025 45.877187 
Q 77.229025 45.877187 77.229025 49.477188 
L 77.229025 311.883437 
Q 77.229025 315.483437 80.829025 315.483437 
z
" style="fill: #ffffff; opacity: 0.95; stroke: #cccccc; stroke-linejoin: miter"/>
    </g>
    <g id="text_58">
     <!-- Journals -->
     <g transform="translate(252.152463 66.754375) scale(0.18 -0.18)">
      <use xlink:href="#DejaVuSans-Bold-4a"/>
      <use xlink:href="#DejaVuSans-Bold-6f" x="37.207031"/>
      <use xlink:href="#DejaVuSans-Bold-75" x="105.908203"/>
      <use xlink:href="#DejaVuSans-Bold-72" x="177.099609"/>
      <use xlink:href="#DejaVuSans-Bold-6e" x="226.416016"/>
      <use xlink:href="#DejaVuSans-Bold-61" x="297.607422"/>
      <use xlink:href="#DejaVuSans-Bold-6c" x="365.087891"/>
      <use xlink:href="#DejaVuSans-Bold-73" x="399.365234"/>
     </g>
    </g>
    <g id="patch_96">
     <path d="M 84.429025 93.175 
L 120.429025 93.175 
L 120.429025 80.575 
L 84.429025 80.575 
z
" style="fill: #2e86ab; opacity: 0.85; stroke: #ffffff; stroke-linejoin: miter"/>
    </g>
    <g id="text_59">
     <!-- Nature Communications -->
     <g transform="translate(129.429025 93.175) scale(0.18 -0.18)">
      <defs>
       <path id="DejaVuSans-4e" d="M 628 4666 
L 1478 4666 
L 3547 763 
L 3547 4666 
L 4159 4666 
L 4159 0 
L 3309 0 
L 1241 3903 
L 1241 0 
L 628 0 
L 628 4666 
z
" transform="scale(0.015625)"/>
       <path id="DejaVuSans-61" d="M 2194 1759 
Q 1497 1759 1228 1600 
Q 959 1441 959 1056 
Q 959 750 1161 570 
Q 1363 391 1709 391 
Q 2188 391 2477 730 
Q 2766 1069 2766 1631 
L 2766 1759 
L 2194 1759 
z
M 3341 1997 
L 3341 0 
L 2766 0 
L 2766 531 
Q 2569 213 2275 61 
Q 1981 -91 1556 -91 
Q 1019 -91 701 211 
Q 384 513 384 1019 
Q 384 1609 779 1909 
Q 1175 2209 1959 2209 
L 2766 2209 
L 2766 2266 
Q 2766 2663 2505 2880 
Q 2244 3097 1772 3097 
Q 1472 3097 1187 3025 
Q 903 2953 641 2809 
L 641 3341 
Q 956 3463 1253 3523 
Q 1550 3584 1831 3584 
Q 2591 3584 2966 3190 
Q 3341 2797 3341 1997 
z
" transform="scale(0.015625)"/>
       <path id="DejaVuSans-74" d="M 1172 4494 
L 1172 3500 
L 2356 3500 
L 2356 3053 
L 1172 3053 
L 1172 1153 
Q 1172 725 1289 603 
Q 1406 481 1766 481 
L 2356 481 
L 2356 0 
L 1766 0 
Q 1100 0 847 248 
Q 594 497 594 1153 
L 594 3053 
L 172 3053 
L 172 3500 
L 594 3500 
L 594 4494 
L 1172 4494 
z
" transform="scale(0.015625)"/>
       <path id="DejaVuSans-75" d="M 544 1381 
L 544 3500 
L 1119 3500 
L 1119 1403 
Q 1119 906 1312 657 
Q 1506 409 1894 409 
Q 2359 409 2629 706 
Q 2900 1003 2900 1516 
L 2900 3500 
L 3475 3500 
L 3475 0 
L 2900 0 
L 2900 538 
Q 2691 219 2414 64 
Q 2138 -91 1772 -91 
Q 1169 -91 856 284 
Q 544 659 544 1381 
z
M 1991 3584 
L 1991 3584 
z
" transform="scale(0.015625)"/>
       <path id="DejaVuSans-72" d="M 2631 2963 
Q 2534 3019 2420 3045 
Q 2306 3072 2169 3072 
Q 1681 3072 1420 2755 
Q 1159 2438 1159 1844 
L 1159 0 
L 581 0 
L 581 3500 
L 1159 3500 
L 1159 2956 
Q 1341 3275 1631 3429 
Q 1922 3584 2338 3584 
Q 2397 3584 2469 3576 
Q 2541 3569 2628 3553 
L 2631 2963 
z
" transform="scale(0.015625)"/>
       <path id="DejaVuSans-65" d="M 3597 1894 
L 3597 1613 
L 953 1613 
Q 991 1019 1311 708 
Q 1631 397 2203 397 
Q 2534 397 2845 478 
Q 3156 559 3463 722 
L 3463 178 
Q 3153 47 2828 -22 
Q 2503 -91 2169 -91 
Q 1331 -91 842 396 
Q 353 884 353 1716 
Q 353 2575 817 3079 
Q 1281 3584 2069 3584 
Q 2775 3584 3186 3129 
Q 3597 2675 3597 1894 
z
M 3022 2063 
Q 3016 2534 2758 2815 
Q 2500 3097 2075 3097 
Q 1594 3097 1305 2825 
Q 1016 2553 972 2059 
L 3022 2063 
z
" transform="scale(0.015625)"/>
       <path id="DejaVuSans-20" transform="scale(0.015625)"/>
       <path id="DejaVuSans-43" d="M 4122 4306 
L 4122 3641 
Q 3803 3938 3442 4084 
Q 3081 4231 2675 4231 
Q 1875 4231 1450 3742 
Q 1025 3253 1025 2328 
Q 1025 1406 1450 917 
Q 1875 428 2675 428 
Q 3081 428 3442 575 
Q 3803 722 4122 1019 
L 4122 359 
Q 3791 134 3420 21 
Q 3050 -91 2638 -91 
Q 1578 -91 968 557 
Q 359 1206 359 2328 
Q 359 3453 968 4101 
Q 1578 4750 2638 4750 
Q 3056 4750 3426 4639 
Q 3797 4528 4122 4306 
z
" transform="scale(0.015625)"/>
       <path id="DejaVuSans-6f" d="M 1959 3097 
Q 1497 3097 1228 2736 
Q 959 2375 959 1747 
Q 959 1119 1226 758 
Q 1494 397 1959 397 
Q 2419 397 2687 759 
Q 2956 1122 2956 1747 
Q 2956 2369 2687 2733 
Q 2419 3097 1959 3097 
z
M 1959 3584 
Q 2709 3584 3137 3096 
Q 3566 2609 3566 1747 
Q 3566 888 3137 398 
Q 2709 -91 1959 -91 
Q 1206 -91 779 398 
Q 353 888 353 1747 
Q 353 2609 779 3096 
Q 1206 3584 1959 3584 
z
" transform="scale(0.015625)"/>
       <path id="DejaVuSans-6d" d="M 3328 2828 
Q 3544 3216 3844 3400 
Q 4144 3584 4550 3584 
Q 5097 3584 5394 3201 
Q 5691 2819 5691 2113 
L 5691 0 
L 5113 0 
L 5113 2094 
Q 5113 2597 4934 2840 
Q 4756 3084 4391 3084 
Q 3944 3084 3684 2787 
Q 3425 2491 3425 1978 
L 3425 0 
L 2847 0 
L 2847 2094 
Q 2847 2600 2669 2842 
Q 2491 3084 2119 3084 
Q 1678 3084 1418 2786 
Q 1159 2488 1159 1978 
L 1159 0 
L 581 0 
L 581 3500 
L 1159 3500 
L 1159 2956 
Q 1356 3278 1631 3431 
Q 1906 3584 2284 3584 
Q 2666 3584 2933 3390 
Q 3200 3197 3328 2828 
z
" transform="scale(0.015625)"/>
       <path id="DejaVuSans-6e" d="M 3513 2113 
L 3513 0 
L 2938 0 
L 2938 2094 
Q 2938 2591 2744 2837 
Q 2550 3084 2163 3084 
Q 1697 3084 1428 2787 
Q 1159 2491 1159 1978 
L 1159 0 
L 581 0 
L 581 3500 
L 1159 3500 
L 1159 2956 
Q 1366 3272 1645 3428 
Q 1925 3584 2291 3584 
Q 2894 3584 3203 3211 
Q 3513 2838 3513 2113 
z
" transform="scale(0.015625)"/>
       <path id="DejaVuSans-69" d="M 603 3500 
L 1178 3500 
L 1178 0 
L 603 0 
L 603 3500 
z
M 603 4863 
L 1178 4863 
L 1178 4134 
L 603 4134 
L 603 4863 
z
" transform="scale(0.015625)"/>
       <path id="DejaVuSans-63" d="M 3122 3366 
L 3122 2828 
Q 2878 2963 2633 3030 
Q 2388 3097 2138 3097 
Q 1578 3097 1268 2742 
Q 959 2388 959 1747 
Q 959 1106 1268 751 
Q 1578 397 2138 397 
Q 2388 397 2633 464 
Q 2878 531 3122 666 
L 3122 134 
Q 2881 22 2623 -34 
Q 2366 -91 2075 -91 
Q 1284 -91 818 406 
Q 353 903 353 1747 
Q 353 2603 823 3093 
Q 1294 3584 2113 3584 
Q 2378 3584 2631 3529 
Q 2884 3475 3122 3366 
z
" transform="scale(0.015625)"/>
       <path id="DejaVuSans-73" d="M 2834 3397 
L 2834 2853 
Q 2591 2978 2328 3040 
Q 2066 3103 1784 3103 
Q 1356 3103 1142 2972 
Q 928 2841 928 2578 
Q 928 2378 1081 2264 
Q 1234 2150 1697 2047 
L 1894 2003 
Q 2506 1872 2764 1633 
Q 3022 1394 3022 966 
Q 3022 478 2636 193 
Q 2250 -91 1575 -91 
Q 1294 -91 989 -36 
Q 684 19 347 128 
L 347 722 
Q 666 556 975 473 
Q 1284 391 1588 391 
Q 1994 391 2212 530 
Q 2431 669 2431 922 
Q 2431 1156 2273 1281 
Q 2116 1406 1581 1522 
L 1381 1569 
Q 847 1681 609 1914 
Q 372 2147 372 2553 
Q 372 3047 722 3315 
Q 1072 3584 1716 3584 
Q 2034 3584 2315 3537 
Q 2597 3491 2834 3397 
z
" transform="scale(0.015625)"/>
      </defs>
      <use xlink:href="#DejaVuSans-4e"/>
      <use xlink:href="#DejaVuSans-61" x="74.804688"/>
      <use xlink:href="#DejaVuSans-74" x="136.083984"/>
      <use xlink:href="#DejaVuSans-75" x="175.292969"/>
      <use xlink:href="#DejaVuSans-72" x="238.671875"/>
      <use xlink:href="#DejaVuSans-65" x="277.535156"/>
      <use xlink:href="#DejaVuSans-20" x="339.058594"/>
      <use xlink:href="#DejaVuSans-43" x="370.845703"/>
      <use xlink:href="#DejaVuSans-6f" x="440.669922"/>
      <use xlink:href="#DejaVuSans-6d" x="501.851562"/>
      <use xlink:href="#DejaVuSans-6d" x="599.263672"/>
      <use xlink:href="#DejaVuSans-75" x="696.675781"/>
      <use xlink:href="#DejaVuSans-6e" x="760.054688"/>
      <use xlink:href="#DejaVuSans-69" x="823.433594"/>
      <use xlink:href="#DejaVuSans-63" x="851.216797"/>
      <use xlink:href="#DejaVuSans-61" x="906.197266"/>
      <use xlink:href="#DejaVuSans-74" x="967.476562"/>
      <use xlink:href="#DejaVuSans-69" x="1006.685547"/>
      <use xlink:href="#DejaVuSans-6f" x="1034.46875"/>
      <use xlink:href="#DejaVuSans-6e" x="1095.650391"/>
      <use xlink:href="#DejaVuSans-73" x="1159.029297"/>
     </g>
    </g>
    <g id="patch_97">
     <path d="M 84.429025 119.595625 
L 120.429025 119.595625 
L 120.429025 106.995625 
L 84.429025 106.995625 
z
" style="fill: #a23b72; opacity: 0.85; stroke: #ffffff; stroke-linejoin: miter"/>
    </g>
    <g id="text_60">
     <!-- Nature -->
     <g transform="translate(129.429025 119.595625) scale(0.18 -0.18)">
      <use xlink:href="#DejaVuSans-4e"/>
      <use xlink:href="#DejaVuSans-61" x="74.804688"/>
      <use xlink:href="#DejaVuSans-74" x="136.083984"/>
      <use xlink:href="#DejaVuSans-75" x="175.292969"/>
      <use xlink:href="#DejaVuSans-72" x="238.671875"/>
      <use xlink:href="#DejaVuSans-65" x="277.535156"/>
     </g>
    </g>
    <g id="patch_98">
     <path d="M 84.429025 146.01625 
L 120.429025 146.01625 
L 120.429025 133.41625 
L 84.429025 133.41625 
z
" style="fill: #f18f01; opacity: 0.85; stroke: #ffffff; stroke-linejoin: miter"/>
    </g>
    <g id="text_61">
     <!-- Advanced Materials -->
     <g transform="translate(129.429025 146.01625) scale(0.18 -0.18)">
      <defs>
       <path id="DejaVuSans-41" d="M 2188 4044 
L 1331 1722 
L 3047 1722 
L 2188 4044 
z
M 1831 4666 
L 2547 4666 
L 4325 0 
L 3669 0 
L 3244 1197 
L 1141 1197 
L 716 0 
L 50 0 
L 1831 4666 
z
" transform="scale(0.015625)"/>
       <path id="DejaVuSans-64" d="M 2906 2969 
L 2906 4863 
L 3481 4863 
L 3481 0 
L 2906 0 
L 2906 525 
Q 2725 213 2448 61 
Q 2172 -91 1784 -91 
Q 1150 -91 751 415 
Q 353 922 353 1747 
Q 353 2572 751 3078 
Q 1150 3584 1784 3584 
Q 2172 3584 2448 3432 
Q 2725 3281 2906 2969 
z
M 947 1747 
Q 947 1113 1208 752 
Q 1469 391 1925 391 
Q 2381 391 2643 752 
Q 2906 1113 2906 1747 
Q 2906 2381 2643 2742 
Q 2381 3103 1925 3103 
Q 1469 3103 1208 2742 
Q 947 2381 947 1747 
z
" transform="scale(0.015625)"/>
       <path id="DejaVuSans-76" d="M 191 3500 
L 800 3500 
L 1894 563 
L 2988 3500 
L 3597 3500 
L 2284 0 
L 1503 0 
L 191 3500 
z
" transform="scale(0.015625)"/>
       <path id="DejaVuSans-4d" d="M 628 4666 
L 1569 4666 
L 2759 1491 
L 3956 4666 
L 4897 4666 
L 4897 0 
L 4281 0 
L 4281 4097 
L 3078 897 
L 2444 897 
L 1241 4097 
L 1241 0 
L 628 0 
L 628 4666 
z
" transform="scale(0.015625)"/>
       <path id="DejaVuSans-6c" d="M 603 4863 
L 1178 4863 
L 1178 0 
L 603 0 
L 603 4863 
z
" transform="scale(0.015625)"/>
      </defs>
      <use xlink:href="#DejaVuSans-41"/>
      <use xlink:href="#DejaVuSans-64" x="66.658203"/>
      <use xlink:href="#DejaVuSans-76" x="130.134766"/>
      <use xlink:href="#DejaVuSans-61" x="189.314453"/>
      <use xlink:href="#DejaVuSans-6e" x="250.59375"/>
      <use xlink:href="#DejaVuSans-63" x="313.972656"/>
      <use xlink:href="#DejaVuSans-65" x="368.953125"/>
      <use xlink:href="#DejaVuSans-64" x="430.476562"/>
      <use xlink:href="#DejaVuSans-20" x="493.953125"/>
      <use xlink:href="#DejaVuSans-4d" x="525.740234"/>
      <use xlink:href="#DejaVuSans-61" x="612.019531"/>
      <use xlink:href="#DejaVuSans-74" x="673.298828"/>
      <use xlink:href="#DejaVuSans-65" x="712.507812"/>
      <use xlink:href="#DejaVuSans-72" x="774.03125"/>
      <use xlink:href="#DejaVuSans-69" x="815.144531"/>
      <use xlink:href="#DejaVuSans-61" x="842.927734"/>
      <use xlink:href="#DejaVuSans-6c" x="904.207031"/>
      <use xlink:href="#DejaVuSans-73" x="931.990234"/>
     </g>
    </g>
    <g id="patch_99">
     <path d="M 84.429025 172.436875 
L 120.429025 172.436875 
L 120.429025 159.836875 
L 84.429025 159.836875 
z
" style="fill: #c73e1d; opacity: 0.85; stroke: #ffffff; stroke-linejoin: miter"/>
    </g>
    <g id="text_62">
     <!-- Journal of the American Chemical Society -->
     <g transform="translate(129.429025 172.436875) scale(0.18 -0.18)">
      <defs>
       <path id="DejaVuSans-4a" d="M 628 4666 
L 1259 4666 
L 1259 325 
Q 1259 -519 939 -900 
Q 619 -1281 -91 -1281 
L -331 -1281 
L -331 -750 
L -134 -750 
Q 284 -750 456 -515 
Q 628 -281 628 325 
L 628 4666 
z
" transform="scale(0.015625)"/>
       <path id="DejaVuSans-66" d="M 2375 4863 
L 2375 4384 
L 1825 4384 
Q 1516 4384 1395 4259 
Q 1275 4134 1275 3809 
L 1275 3500 
L 2222 3500 
L 2222 3053 
L 1275 3053 
L 1275 0 
L 697 0 
L 697 3053 
L 147 3053 
L 147 3500 
L 697 3500 
L 697 3744 
Q 697 4328 969 4595 
Q 1241 4863 1831 4863 
L 2375 4863 
z
" transform="scale(0.015625)"/>
       <path id="DejaVuSans-68" d="M 3513 2113 
L 3513 0 
L 2938 0 
L 2938 2094 
Q 2938 2591 2744 2837 
Q 2550 3084 2163 3084 
Q 1697 3084 1428 2787 
Q 1159 2491 1159 1978 
L 1159 0 
L 581 0 
L 581 4863 
L 1159 4863 
L 1159 2956 
Q 1366 3272 1645 3428 
Q 1925 3584 2291 3584 
Q 2894 3584 3203 3211 
Q 3513 2838 3513 2113 
z
" transform="scale(0.015625)"/>
       <path id="DejaVuSans-53" d="M 3425 4513 
L 3425 3897 
Q 3066 4069 2747 4153 
Q 2428 4238 2131 4238 
Q 1616 4238 1336 4038 
Q 1056 3838 1056 3469 
Q 1056 3159 1242 3001 
Q 1428 2844 1947 2747 
L 2328 2669 
Q 3034 2534 3370 2195 
Q 3706 1856 3706 1288 
Q 3706 609 3251 259 
Q 2797 -91 1919 -91 
Q 1588 -91 1214 -16 
Q 841 59 441 206 
L 441 856 
Q 825 641 1194 531 
Q 1563 422 1919 422 
Q 2459 422 2753 634 
Q 3047 847 3047 1241 
Q 3047 1584 2836 1778 
Q 2625 1972 2144 2069 
L 1759 2144 
Q 1053 2284 737 2584 
Q 422 2884 422 3419 
Q 422 4038 858 4394 
Q 1294 4750 2059 4750 
Q 2388 4750 2728 4690 
Q 3069 4631 3425 4513 
z
" transform="scale(0.015625)"/>
       <path id="DejaVuSans-79" d="M 2059 -325 
Q 1816 -950 1584 -1140 
Q 1353 -1331 966 -1331 
L 506 -1331 
L 506 -850 
L 844 -850 
Q 1081 -850 1212 -737 
Q 1344 -625 1503 -206 
L 1606 56 
L 191 3500 
L 800 3500 
L 1894 763 
L 2988 3500 
L 3597 3500 
L 2059 -325 
z
" transform="scale(0.015625)"/>
      </defs>
      <use xlink:href="#DejaVuSans-4a"/>
      <use xlink:href="#DejaVuSans-6f" x="29.492188"/>
      <use xlink:href="#DejaVuSans-75" x="90.673828"/>
      <use xlink:href="#DejaVuSans-72" x="154.052734"/>
      <use xlink:href="#DejaVuSans-6e" x="193.416016"/>
      <use xlink:href="#DejaVuSans-61" x="256.794922"/>
      <use xlink:href="#DejaVuSans-6c" x="318.074219"/>
      <use xlink:href="#DejaVuSans-20" x="345.857422"/>
      <use xlink:href="#DejaVuSans-6f" x="377.644531"/>
      <use xlink:href="#DejaVuSans-66" x="438.826172"/>
      <use xlink:href="#DejaVuSans-20" x="474.03125"/>
      <use xlink:href="#DejaVuSans-74" x="505.818359"/>
      <use xlink:href="#DejaVuSans-68" x="545.027344"/>
      <use xlink:href="#DejaVuSans-65" x="608.40625"/>
      <use xlink:href="#DejaVuSans-20" x="669.929688"/>
      <use xlink:href="#DejaVuSans-41" x="701.716797"/>
      <use xlink:href="#DejaVuSans-6d" x="770.125"/>
      <use xlink:href="#DejaVuSans-65" x="867.537109"/>
      <use xlink:href="#DejaVuSans-72" x="929.060547"/>
      <use xlink:href="#DejaVuSans-69" x="970.173828"/>
      <use xlink:href="#DejaVuSans-63" x="997.957031"/>
      <use xlink:href="#DejaVuSans-61" x="1052.9375"/>
      <use xlink:href="#DejaVuSans-6e" x="1114.216797"/>
      <use xlink:href="#DejaVuSans-20" x="1177.595703"/>
      <use xlink:href="#DejaVuSans-43" x="1209.382812"/>
      <use xlink:href="#DejaVuSans-68" x="1279.207031"/>
      <use xlink:href="#DejaVuSans-65" x="1342.585938"/>
      <use xlink:href="#DejaVuSans-6d" x="1404.109375"/>
      <use xlink:href="#DejaVuSans-69" x="1501.521484"/>
      <use xlink:href="#DejaVuSans-63" x="1529.304688"/>
      <use xlink:href="#DejaVuSans-61" x="1584.285156"/>
      <use xlink:href="#DejaVuSans-6c" x="1645.564453"/>
      <use xlink:href="#DejaVuSans-20" x="1673.347656"/>
      <use xlink:href="#DejaVuSans-53" x="1705.134766"/>
      <use xlink:href="#DejaVuSans-6f" x="1768.611328"/>
      <use xlink:href="#DejaVuSans-63" x="1829.792969"/>
      <use xlink:href="#DejaVuSans-69" x="1884.773438"/>
      <use xlink:href="#DejaVuSans-65" x="1912.556641"/>
      <use xlink:href="#DejaVuSans-74" x="1974.080078"/>
      <use xlink:href="#DejaVuSans-79" x="2013.289062"/>
     </g>
    </g>
    <g id="patch_100">
     <path d="M 84.429025 198.8575 
L 120.429025 198.8575 
L 120.429025 186.2575 
L 84.429025 186.2575 
z
" style="fill: #4caf50; opacity: 0.85; stroke: #ffffff; stroke-linejoin: miter"/>
    </g>
    <g id="text_63">
     <!-- Nature Machine Intelligence -->
     <g transform="translate(129.429025 198.8575) scale(0.18 -0.18)">
      <defs>
       <path id="DejaVuSans-49" d="M 628 4666 
L 1259 4666 
L 1259 0 
L 628 0 
L 628 4666 
z
" transform="scale(0.015625)"/>
       <path id="DejaVuSans-67" d="M 2906 1791 
Q 2906 2416 2648 2759 
Q 2391 3103 1925 3103 
Q 1463 3103 1205 2759 
Q 947 2416 947 1791 
Q 947 1169 1205 825 
Q 1463 481 1925 481 
Q 2391 481 2648 825 
Q 2906 1169 2906 1791 
z
M 3481 434 
Q 3481 -459 3084 -895 
Q 2688 -1331 1869 -1331 
Q 1566 -1331 1297 -1286 
Q 1028 -1241 775 -1147 
L 775 -588 
Q 1028 -725 1275 -790 
Q 1522 -856 1778 -856 
Q 2344 -856 2625 -561 
Q 2906 -266 2906 331 
L 2906 616 
Q 2728 306 2450 153 
Q 2172 0 1784 0 
Q 1141 0 747 490 
Q 353 981 353 1791 
Q 353 2603 747 3093 
Q 1141 3584 1784 3584 
Q 2172 3584 2450 3431 
Q 2728 3278 2906 2969 
L 2906 3500 
L 3481 3500 
L 3481 434 
z
" transform="scale(0.015625)"/>
      </defs>
      <use xlink:href="#DejaVuSans-4e"/>
      <use xlink:href="#DejaVuSans-61" x="74.804688"/>
      <use xlink:href="#DejaVuSans-74" x="136.083984"/>
      <use xlink:href="#DejaVuSans-75" x="175.292969"/>
      <use xlink:href="#DejaVuSans-72" x="238.671875"/>
      <use xlink:href="#DejaVuSans-65" x="277.535156"/>
      <use xlink:href="#DejaVuSans-20" x="339.058594"/>
      <use xlink:href="#DejaVuSans-4d" x="370.845703"/>
      <use xlink:href="#DejaVuSans-61" x="457.125"/>
      <use xlink:href="#DejaVuSans-63" x="518.404297"/>
      <use xlink:href="#DejaVuSans-68" x="573.384766"/>
      <use xlink:href="#DejaVuSans-69" x="636.763672"/>
      <use xlink:href="#DejaVuSans-6e" x="664.546875"/>
      <use xlink:href="#DejaVuSans-65" x="727.925781"/>
      <use xlink:href="#DejaVuSans-20" x="789.449219"/>
      <use xlink:href="#DejaVuSans-49" x="821.236328"/>
      <use xlink:href="#DejaVuSans-6e" x="850.728516"/>
      <use xlink:href="#DejaVuSans-74" x="914.107422"/>
      <use xlink:href="#DejaVuSans-65" x="953.316406"/>
      <use xlink:href="#DejaVuSans-6c" x="1014.839844"/>
      <use xlink:href="#DejaVuSans-6c" x="1042.623047"/>
      <use xlink:href="#DejaVuSans-69" x="1070.40625"/>
      <use xlink:href="#DejaVuSans-67" x="1098.189453"/>
      <use xlink:href="#DejaVuSans-65" x="1161.666016"/>
      <use xlink:href="#DejaVuSans-6e" x="1223.189453"/>
      <use xlink:href="#DejaVuSans-63" x="1286.568359"/>
      <use xlink:href="#DejaVuSans-65" x="1341.548828"/>
     </g>
    </g>
    <g id="patch_101">
     <path d="M 84.429025 225.278125 
L 120.429025 225.278125 
L 120.429025 212.678125 
L 84.429025 212.678125 
z
" style="fill: #9c27b0; opacity: 0.85; stroke: #ffffff; stroke-linejoin: miter"/>
    </g>
    <g id="text_64">
     <!-- Science -->
     <g transform="translate(129.429025 225.278125) scale(0.18 -0.18)">
      <use xlink:href="#DejaVuSans-53"/>
      <use xlink:href="#DejaVuSans-63" x="63.476562"/>
      <use xlink:href="#DejaVuSans-69" x="118.457031"/>
      <use xlink:href="#DejaVuSans-65" x="146.240234"/>
      <use xlink:href="#DejaVuSans-6e" x="207.763672"/>
      <use xlink:href="#DejaVuSans-63" x="271.142578"/>
      <use xlink:href="#DejaVuSans-65" x="326.123047"/>
     </g>
    </g>
    <g id="patch_102">
     <path d="M 84.429025 251.69875 
L 120.429025 251.69875 
L 120.429025 239.09875 
L 84.429025 239.09875 
z
" style="fill: #ff9800; opacity: 0.85; stroke: #ffffff; stroke-linejoin: miter"/>
    </g>
    <g id="text_65">
     <!-- Nature Computational Science -->
     <g transform="translate(129.429025 251.69875) scale(0.18 -0.18)">
      <defs>
       <path id="DejaVuSans-70" d="M 1159 525 
L 1159 -1331 
L 581 -1331 
L 581 3500 
L 1159 3500 
L 1159 2969 
Q 1341 3281 1617 3432 
Q 1894 3584 2278 3584 
Q 2916 3584 3314 3078 
Q 3713 2572 3713 1747 
Q 3713 922 3314 415 
Q 2916 -91 2278 -91 
Q 1894 -91 1617 61 
Q 1341 213 1159 525 
z
M 3116 1747 
Q 3116 2381 2855 2742 
Q 2594 3103 2138 3103 
Q 1681 3103 1420 2742 
Q 1159 2381 1159 1747 
Q 1159 1113 1420 752 
Q 1681 391 2138 391 
Q 2594 391 2855 752 
Q 3116 1113 3116 1747 
z
" transform="scale(0.015625)"/>
      </defs>
      <use xlink:href="#DejaVuSans-4e"/>
      <use xlink:href="#DejaVuSans-61" x="74.804688"/>
      <use xlink:href="#DejaVuSans-74" x="136.083984"/>
      <use xlink:href="#DejaVuSans-75" x="175.292969"/>
      <use xlink:href="#DejaVuSans-72" x="238.671875"/>
      <use xlink:href="#DejaVuSans-65" x="277.535156"/>
      <use xlink:href="#DejaVuSans-20" x="339.058594"/>
      <use xlink:href="#DejaVuSans-43" x="370.845703"/>
      <use xlink:href="#DejaVuSans-6f" x="440.669922"/>
      <use xlink:href="#DejaVuSans-6d" x="501.851562"/>
      <use xlink:href="#DejaVuSans-70" x="599.263672"/>
      <use xlink:href="#DejaVuSans-75" x="662.740234"/>
      <use xlink:href="#DejaVuSans-74" x="726.119141"/>
      <use xlink:href="#DejaVuSans-61" x="765.328125"/>
      <use xlink:href="#DejaVuSans-74" x="826.607422"/>
      <use xlink:href="#DejaVuSans-69" x="865.816406"/>
      <use xlink:href="#DejaVuSans-6f" x="893.599609"/>
      <use xlink:href="#DejaVuSans-6e" x="954.78125"/>
      <use xlink:href="#DejaVuSans-61" x="1018.160156"/>
      <use xlink:href="#DejaVuSans-6c" x="1079.439453"/>
      <use xlink:href="#DejaVuSans-20" x="1107.222656"/>
      <use xlink:href="#DejaVuSans-53" x="1139.009766"/>
      <use xlink:href="#DejaVuSans-63" x="1202.486328"/>
      <use xlink:href="#DejaVuSans-69" x="1257.466797"/>
      <use xlink:href="#DejaVuSans-65" x="1285.25"/>
      <use xlink:href="#DejaVuSans-6e" x="1346.773438"/>
      <use xlink:href="#DejaVuSans-63" x="1410.152344"/>
      <use xlink:href="#DejaVuSans-65" x="1465.132812"/>
     </g>
    </g>
    <g id="patch_103">
     <path d="M 84.429025 278.119375 
L 120.429025 278.119375 
L 120.429025 265.519375 
L 84.429025 265.519375 
z
" style="fill: #607d8b; opacity: 0.85; stroke: #ffffff; stroke-linejoin: miter"/>
    </g>
    <g id="text_66">
     <!-- Nature Synthesis -->
     <g transform="translate(129.429025 278.119375) scale(0.18 -0.18)">
      <use xlink:href="#DejaVuSans-4e"/>
      <use xlink:href="#DejaVuSans-61" x="74.804688"/>
      <use xlink:href="#DejaVuSans-74" x="136.083984"/>
      <use xlink:href="#DejaVuSans-75" x="175.292969"/>
      <use xlink:href="#DejaVuSans-72" x="238.671875"/>
      <use xlink:href="#DejaVuSans-65" x="277.535156"/>
      <use xlink:href="#DejaVuSans-20" x="339.058594"/>
      <use xlink:href="#DejaVuSans-53" x="370.845703"/>
      <use xlink:href="#DejaVuSans-79" x="434.322266"/>
      <use xlink:href="#DejaVuSans-6e" x="493.501953"/>
      <use xlink:href="#DejaVuSans-74" x="556.880859"/>
      <use xlink:href="#DejaVuSans-68" x="596.089844"/>
      <use xlink:href="#DejaVuSans-65" x="659.46875"/>
      <use xlink:href="#DejaVuSans-73" x="720.992188"/>
      <use xlink:href="#DejaVuSans-69" x="773.091797"/>
      <use xlink:href="#DejaVuSans-73" x="800.875"/>
     </g>
    </g>
    <g id="patch_104">
     <path d="M 84.429025 304.54 
L 120.429025 304.54 
L 120.429025 291.94 
L 84.429025 291.94 
z
" style="fill: #8bc34a; opacity: 0.85; stroke: #ffffff; stroke-linejoin: miter"/>
    </g>
    <g id="text_67">
     <!-- Others -->
     <g transform="translate(129.429025 304.54) scale(0.18 -0.18)">
      <defs>
       <path id="DejaVuSans-4f" d="M 2522 4238 
Q 1834 4238 1429 3725 
Q 1025 3213 1025 2328 
Q 1025 1447 1429 934 
Q 1834 422 2522 422 
Q 3209 422 3611 934 
Q 4013 1447 4013 2328 
Q 4013 3213 3611 3725 
Q 3209 4238 2522 4238 
z
M 2522 4750 
Q 3503 4750 4090 4092 
Q 4678 3434 4678 2328 
Q 4678 1225 4090 567 
Q 3503 -91 2522 -91 
Q 1538 -91 948 565 
Q 359 1222 359 2328 
Q 359 3434 948 4092 
Q 1538 4750 2522 4750 
z
" transform="scale(0.015625)"/>
      </defs>
      <use xlink:href="#DejaVuSans-4f"/>
      <use xlink:href="#DejaVuSans-74" x="78.710938"/>
      <use xlink:href="#DejaVuSans-68" x="117.919922"/>
      <use xlink:href="#DejaVuSans-65" x="181.298828"/>
      <use xlink:href="#DejaVuSans-72" x="242.822266"/>
      <use xlink:href="#DejaVuSans-73" x="283.935547"/>
     </g>
    </g>
   </g>
  </g>
 </g>
 <defs>
  <clipPath id="p0f100840ae">
   <rect x="58.525625" y="45.877187" width="935.17" height="470.16"/>
  </clipPath>
 </defs>
</svg>
